G75*
G70*
%OFA0B0*%
%FSLAX24Y24*%
%IPPOS*%
%LPD*%
%AMOC8*
5,1,8,0,0,1.08239X$1,22.5*
%
%ADD10C,0.0000*%
%ADD11C,0.0040*%
%ADD12C,0.0030*%
%ADD13C,0.0160*%
%ADD14C,0.0060*%
%ADD15C,0.0050*%
%ADD16C,0.0100*%
%ADD17R,0.0240X0.0340*%
%ADD18R,0.0340X0.0240*%
%ADD19C,0.0200*%
%ADD20R,0.0300X0.4200*%
%ADD21R,0.0200X0.0750*%
%ADD22R,0.0200X0.0300*%
%ADD23R,0.1000X0.0200*%
%ADD24R,0.0300X0.0750*%
%ADD25C,0.0080*%
%ADD26R,0.0250X0.0900*%
D10*
X000220Y000459D02*
X000220Y019955D01*
X019984Y019955D01*
X019984Y000459D01*
X000220Y000459D01*
X000810Y001247D02*
X000812Y001274D01*
X000818Y001301D01*
X000827Y001327D01*
X000840Y001351D01*
X000856Y001374D01*
X000875Y001393D01*
X000897Y001410D01*
X000921Y001424D01*
X000946Y001434D01*
X000973Y001441D01*
X001000Y001444D01*
X001028Y001443D01*
X001055Y001438D01*
X001081Y001430D01*
X001105Y001418D01*
X001128Y001402D01*
X001149Y001384D01*
X001166Y001363D01*
X001181Y001339D01*
X001192Y001314D01*
X001200Y001288D01*
X001204Y001261D01*
X001204Y001233D01*
X001200Y001206D01*
X001192Y001180D01*
X001181Y001155D01*
X001166Y001131D01*
X001149Y001110D01*
X001128Y001092D01*
X001106Y001076D01*
X001081Y001064D01*
X001055Y001056D01*
X001028Y001051D01*
X001000Y001050D01*
X000973Y001053D01*
X000946Y001060D01*
X000921Y001070D01*
X000897Y001084D01*
X000875Y001101D01*
X000856Y001120D01*
X000840Y001143D01*
X000827Y001167D01*
X000818Y001193D01*
X000812Y001220D01*
X000810Y001247D01*
X000810Y018963D02*
X000812Y018990D01*
X000818Y019017D01*
X000827Y019043D01*
X000840Y019067D01*
X000856Y019090D01*
X000875Y019109D01*
X000897Y019126D01*
X000921Y019140D01*
X000946Y019150D01*
X000973Y019157D01*
X001000Y019160D01*
X001028Y019159D01*
X001055Y019154D01*
X001081Y019146D01*
X001105Y019134D01*
X001128Y019118D01*
X001149Y019100D01*
X001166Y019079D01*
X001181Y019055D01*
X001192Y019030D01*
X001200Y019004D01*
X001204Y018977D01*
X001204Y018949D01*
X001200Y018922D01*
X001192Y018896D01*
X001181Y018871D01*
X001166Y018847D01*
X001149Y018826D01*
X001128Y018808D01*
X001106Y018792D01*
X001081Y018780D01*
X001055Y018772D01*
X001028Y018767D01*
X001000Y018766D01*
X000973Y018769D01*
X000946Y018776D01*
X000921Y018786D01*
X000897Y018800D01*
X000875Y018817D01*
X000856Y018836D01*
X000840Y018859D01*
X000827Y018883D01*
X000818Y018909D01*
X000812Y018936D01*
X000810Y018963D01*
X018921Y018963D02*
X018923Y018990D01*
X018929Y019017D01*
X018938Y019043D01*
X018951Y019067D01*
X018967Y019090D01*
X018986Y019109D01*
X019008Y019126D01*
X019032Y019140D01*
X019057Y019150D01*
X019084Y019157D01*
X019111Y019160D01*
X019139Y019159D01*
X019166Y019154D01*
X019192Y019146D01*
X019216Y019134D01*
X019239Y019118D01*
X019260Y019100D01*
X019277Y019079D01*
X019292Y019055D01*
X019303Y019030D01*
X019311Y019004D01*
X019315Y018977D01*
X019315Y018949D01*
X019311Y018922D01*
X019303Y018896D01*
X019292Y018871D01*
X019277Y018847D01*
X019260Y018826D01*
X019239Y018808D01*
X019217Y018792D01*
X019192Y018780D01*
X019166Y018772D01*
X019139Y018767D01*
X019111Y018766D01*
X019084Y018769D01*
X019057Y018776D01*
X019032Y018786D01*
X019008Y018800D01*
X018986Y018817D01*
X018967Y018836D01*
X018951Y018859D01*
X018938Y018883D01*
X018929Y018909D01*
X018923Y018936D01*
X018921Y018963D01*
X018921Y001247D02*
X018923Y001274D01*
X018929Y001301D01*
X018938Y001327D01*
X018951Y001351D01*
X018967Y001374D01*
X018986Y001393D01*
X019008Y001410D01*
X019032Y001424D01*
X019057Y001434D01*
X019084Y001441D01*
X019111Y001444D01*
X019139Y001443D01*
X019166Y001438D01*
X019192Y001430D01*
X019216Y001418D01*
X019239Y001402D01*
X019260Y001384D01*
X019277Y001363D01*
X019292Y001339D01*
X019303Y001314D01*
X019311Y001288D01*
X019315Y001261D01*
X019315Y001233D01*
X019311Y001206D01*
X019303Y001180D01*
X019292Y001155D01*
X019277Y001131D01*
X019260Y001110D01*
X019239Y001092D01*
X019217Y001076D01*
X019192Y001064D01*
X019166Y001056D01*
X019139Y001051D01*
X019111Y001050D01*
X019084Y001053D01*
X019057Y001060D01*
X019032Y001070D01*
X019008Y001084D01*
X018986Y001101D01*
X018967Y001120D01*
X018951Y001143D01*
X018938Y001167D01*
X018929Y001193D01*
X018923Y001220D01*
X018921Y001247D01*
D11*
X015478Y007172D02*
X015094Y007172D01*
X015094Y007479D02*
X015478Y007479D01*
X015554Y007402D01*
X015554Y007249D01*
X015478Y007172D01*
X015554Y007633D02*
X015094Y007633D01*
X015094Y007940D01*
X015324Y008093D02*
X015324Y008400D01*
X015171Y008553D02*
X015094Y008630D01*
X015094Y008784D01*
X015171Y008860D01*
X015478Y008553D01*
X015171Y008553D01*
X015094Y008323D02*
X015324Y008093D01*
X015324Y007786D02*
X015324Y007633D01*
X015554Y008323D02*
X015094Y008323D01*
X015478Y008553D02*
X015554Y008630D01*
X015554Y008784D01*
X015478Y008860D01*
X015171Y008860D01*
X015171Y009014D02*
X015094Y009091D01*
X015094Y009244D01*
X015171Y009321D01*
X015478Y009014D01*
X015554Y009091D01*
X015554Y009244D01*
X015478Y009321D01*
X015171Y009321D01*
X015094Y009474D02*
X015094Y009781D01*
X015171Y009781D01*
X015478Y009474D01*
X015554Y009474D01*
X015478Y009014D02*
X015171Y009014D01*
X009495Y018436D02*
X009572Y018513D01*
X009572Y018666D01*
X009649Y018590D01*
X009725Y018590D01*
X009802Y018666D01*
X009802Y018820D01*
X009956Y018820D02*
X010263Y018820D01*
X010263Y019050D02*
X010263Y018590D01*
X009956Y018590D02*
X009956Y019050D01*
X009572Y018820D02*
X009572Y018666D01*
X009342Y018666D02*
X009265Y018590D01*
X009112Y018590D01*
X009035Y018666D01*
X009342Y018973D01*
X009342Y018666D01*
X009035Y018666D02*
X009035Y018973D01*
X009112Y019050D01*
X009265Y019050D01*
X009342Y018973D01*
X008881Y018973D02*
X008881Y018666D01*
X008805Y018590D01*
X008651Y018590D01*
X008574Y018666D01*
X008881Y018973D01*
X008805Y019050D01*
X008651Y019050D01*
X008574Y018973D01*
X008574Y018666D01*
X008421Y018590D02*
X008114Y018590D01*
X008267Y018590D02*
X008267Y019050D01*
X008114Y018896D01*
D12*
X004956Y006560D02*
X004956Y006269D01*
X004855Y006269D02*
X004710Y006269D01*
X004662Y006318D01*
X004662Y006414D01*
X004710Y006463D01*
X004855Y006463D01*
X004855Y006221D01*
X004807Y006173D01*
X004759Y006173D01*
X004709Y005983D02*
X004612Y005983D01*
X004709Y005983D02*
X004757Y005934D01*
X004757Y005789D01*
X004612Y005789D01*
X004564Y005838D01*
X004612Y005886D01*
X004757Y005886D01*
X004858Y005934D02*
X004858Y005838D01*
X004907Y005789D01*
X005052Y005789D01*
X005052Y005741D02*
X005052Y005983D01*
X004907Y005983D01*
X004858Y005934D01*
X005052Y005741D02*
X005003Y005693D01*
X004955Y005693D01*
X005153Y005838D02*
X005153Y005934D01*
X005201Y005983D01*
X005298Y005983D01*
X005346Y005934D01*
X005346Y005886D01*
X005153Y005886D01*
X005153Y005838D02*
X005201Y005789D01*
X005298Y005789D01*
X005448Y005789D02*
X005448Y005838D01*
X005448Y005934D02*
X005448Y006128D01*
X005150Y006269D02*
X005150Y006414D01*
X005102Y006463D01*
X005005Y006463D01*
X004956Y006414D01*
X004562Y006269D02*
X004465Y006269D01*
X004514Y006269D02*
X004514Y006463D01*
X004465Y006463D01*
X004514Y006560D02*
X004514Y006608D01*
X004364Y006560D02*
X004364Y006269D01*
X004364Y006414D02*
X004171Y006414D01*
X004171Y006269D02*
X004171Y006560D01*
X004171Y006080D02*
X004219Y006080D01*
X004219Y005789D01*
X004171Y005789D02*
X004268Y005789D01*
X004416Y005838D02*
X004464Y005789D01*
X004416Y005838D02*
X004416Y006031D01*
X004464Y005983D02*
X004367Y005983D01*
X004070Y005934D02*
X004070Y005838D01*
X004021Y005789D01*
X003924Y005789D01*
X003876Y005838D01*
X003876Y005934D01*
X003924Y005983D01*
X004021Y005983D01*
X004070Y005934D01*
X003775Y005886D02*
X003775Y006080D01*
X003581Y006080D02*
X003581Y005886D01*
X003678Y005789D01*
X003775Y005886D01*
X016770Y001897D02*
X016770Y001704D01*
X016819Y001655D01*
X016916Y001655D01*
X016964Y001704D01*
X016916Y001752D02*
X016916Y001849D01*
X016819Y001849D01*
X016819Y001752D01*
X016916Y001752D01*
X016964Y001801D01*
X016964Y001897D01*
X016916Y001946D01*
X016819Y001946D01*
X016770Y001897D01*
X017065Y001801D02*
X017113Y001849D01*
X017259Y001849D01*
X017210Y001752D02*
X017113Y001752D01*
X017065Y001801D01*
X017065Y001655D02*
X017210Y001655D01*
X017259Y001704D01*
X017210Y001752D01*
X017360Y001801D02*
X017408Y001849D01*
X017505Y001849D01*
X017553Y001801D01*
X017553Y001655D01*
X017654Y001704D02*
X017703Y001752D01*
X017848Y001752D01*
X017848Y001801D02*
X017848Y001655D01*
X017703Y001655D01*
X017654Y001704D01*
X017703Y001849D02*
X017800Y001849D01*
X017848Y001801D01*
X017949Y001849D02*
X018094Y001849D01*
X018143Y001801D01*
X018143Y001655D01*
X018244Y001655D02*
X018244Y001849D01*
X018389Y001849D01*
X018437Y001801D01*
X018437Y001655D01*
X018538Y001655D02*
X018635Y001655D01*
X018587Y001655D02*
X018587Y001849D01*
X018538Y001849D01*
X018587Y001946D02*
X018587Y001994D01*
X018735Y001801D02*
X018783Y001849D01*
X018880Y001849D01*
X018928Y001801D01*
X018928Y001752D01*
X018735Y001752D01*
X018735Y001704D02*
X018735Y001801D01*
X018735Y001704D02*
X018783Y001655D01*
X018880Y001655D01*
X019078Y001704D02*
X019078Y001897D01*
X019126Y001849D02*
X019029Y001849D01*
X019078Y001704D02*
X019126Y001655D01*
X019226Y001655D02*
X019226Y001849D01*
X019226Y001752D02*
X019323Y001849D01*
X019371Y001849D01*
X019471Y001801D02*
X019520Y001849D01*
X019617Y001849D01*
X019665Y001801D01*
X019665Y001704D01*
X019617Y001655D01*
X019520Y001655D01*
X019471Y001704D01*
X019471Y001801D01*
X019766Y001849D02*
X019766Y001655D01*
X019960Y001655D02*
X019960Y001801D01*
X019911Y001849D01*
X019766Y001849D01*
X018290Y001307D02*
X018290Y001113D01*
X018241Y001065D01*
X018145Y001065D01*
X018096Y001113D01*
X018290Y001307D01*
X018241Y001355D01*
X018145Y001355D01*
X018096Y001307D01*
X018096Y001113D01*
X017997Y001113D02*
X017997Y001065D01*
X017949Y001065D01*
X017949Y001113D01*
X017997Y001113D01*
X017848Y001065D02*
X017654Y001065D01*
X017751Y001065D02*
X017751Y001355D01*
X017654Y001258D01*
X017553Y001162D02*
X017553Y001355D01*
X017360Y001355D02*
X017360Y001162D01*
X017456Y001065D01*
X017553Y001162D01*
X017259Y001065D02*
X017065Y001065D01*
X017065Y001355D01*
X017259Y001355D01*
X017162Y001210D02*
X017065Y001210D01*
X016964Y001210D02*
X016916Y001162D01*
X016770Y001162D01*
X016770Y001065D02*
X016770Y001355D01*
X016916Y001355D01*
X016964Y001307D01*
X016964Y001210D01*
X016867Y001162D02*
X016964Y001065D01*
X017360Y001655D02*
X017360Y001946D01*
X017949Y001849D02*
X017949Y001655D01*
D13*
X006114Y007959D02*
X006114Y008459D01*
X006114Y008959D01*
X005764Y008959D02*
X005764Y008459D01*
X005764Y007959D01*
X002582Y006759D02*
X003763Y004790D01*
X001401Y004790D01*
X002582Y006759D01*
X002582Y005971D02*
X002189Y005577D01*
X002582Y005577D01*
X002189Y005184D01*
D14*
X001445Y004528D02*
X001445Y004448D01*
X005375Y004448D01*
X005375Y001848D01*
X005375Y000908D01*
X001445Y000908D01*
X001445Y001848D01*
X001445Y004448D01*
X001445Y004528D02*
X005375Y004528D01*
X005375Y004448D01*
X004195Y003928D02*
X004197Y003956D01*
X004203Y003983D01*
X004212Y004009D01*
X004225Y004034D01*
X004242Y004057D01*
X004261Y004077D01*
X004283Y004094D01*
X004307Y004108D01*
X004333Y004118D01*
X004360Y004125D01*
X004388Y004128D01*
X004416Y004127D01*
X004443Y004122D01*
X004470Y004113D01*
X004495Y004101D01*
X004518Y004086D01*
X004539Y004067D01*
X004557Y004046D01*
X004572Y004022D01*
X004583Y003996D01*
X004591Y003970D01*
X004595Y003942D01*
X004595Y003914D01*
X004591Y003886D01*
X004583Y003860D01*
X004572Y003834D01*
X004557Y003810D01*
X004539Y003789D01*
X004518Y003770D01*
X004495Y003755D01*
X004470Y003743D01*
X004443Y003734D01*
X004416Y003729D01*
X004388Y003728D01*
X004360Y003731D01*
X004333Y003738D01*
X004307Y003748D01*
X004283Y003762D01*
X004261Y003779D01*
X004242Y003799D01*
X004225Y003822D01*
X004212Y003847D01*
X004203Y003873D01*
X004197Y003900D01*
X004195Y003928D01*
X002225Y003928D02*
X002227Y003956D01*
X002233Y003983D01*
X002242Y004009D01*
X002255Y004034D01*
X002272Y004057D01*
X002291Y004077D01*
X002313Y004094D01*
X002337Y004108D01*
X002363Y004118D01*
X002390Y004125D01*
X002418Y004128D01*
X002446Y004127D01*
X002473Y004122D01*
X002500Y004113D01*
X002525Y004101D01*
X002548Y004086D01*
X002569Y004067D01*
X002587Y004046D01*
X002602Y004022D01*
X002613Y003996D01*
X002621Y003970D01*
X002625Y003942D01*
X002625Y003914D01*
X002621Y003886D01*
X002613Y003860D01*
X002602Y003834D01*
X002587Y003810D01*
X002569Y003789D01*
X002548Y003770D01*
X002525Y003755D01*
X002500Y003743D01*
X002473Y003734D01*
X002446Y003729D01*
X002418Y003728D01*
X002390Y003731D01*
X002363Y003738D01*
X002337Y003748D01*
X002313Y003762D01*
X002291Y003779D01*
X002272Y003799D01*
X002255Y003822D01*
X002242Y003847D01*
X002233Y003873D01*
X002227Y003900D01*
X002225Y003928D01*
X002075Y001848D02*
X001445Y001848D01*
X002775Y001848D02*
X004045Y001848D01*
X004745Y001848D02*
X005375Y001848D01*
X006507Y005009D02*
X006657Y005009D01*
X006707Y005059D01*
X008607Y005059D01*
X008657Y005009D01*
X008807Y005009D01*
X008824Y005011D01*
X008841Y005015D01*
X008857Y005022D01*
X008871Y005032D01*
X008884Y005045D01*
X008894Y005059D01*
X008901Y005075D01*
X008905Y005092D01*
X008907Y005109D01*
X008907Y005809D01*
X008905Y005826D01*
X008901Y005843D01*
X008894Y005859D01*
X008884Y005873D01*
X008871Y005886D01*
X008857Y005896D01*
X008841Y005903D01*
X008824Y005907D01*
X008807Y005909D01*
X008657Y005909D01*
X008607Y005859D01*
X006707Y005859D01*
X006657Y005909D01*
X006507Y005909D01*
X006490Y005907D01*
X006473Y005903D01*
X006457Y005896D01*
X006443Y005886D01*
X006430Y005873D01*
X006420Y005859D01*
X006413Y005843D01*
X006409Y005826D01*
X006407Y005809D01*
X006407Y005109D01*
X006409Y005092D01*
X006413Y005075D01*
X006420Y005059D01*
X006430Y005045D01*
X006443Y005032D01*
X006457Y005022D01*
X006473Y005015D01*
X006490Y005011D01*
X006507Y005009D01*
X007464Y006859D02*
X000764Y006859D01*
X000738Y006861D01*
X000712Y006866D01*
X000687Y006874D01*
X000664Y006886D01*
X000642Y006900D01*
X000623Y006918D01*
X000605Y006937D01*
X000591Y006959D01*
X000579Y006982D01*
X000571Y007007D01*
X000566Y007033D01*
X000564Y007059D01*
X000564Y009859D01*
X000566Y009885D01*
X000571Y009911D01*
X000579Y009936D01*
X000591Y009959D01*
X000605Y009981D01*
X000623Y010000D01*
X000642Y010018D01*
X000664Y010032D01*
X000687Y010044D01*
X000712Y010052D01*
X000738Y010057D01*
X000764Y010059D01*
X007464Y010059D01*
X007490Y010057D01*
X007516Y010052D01*
X007541Y010044D01*
X007564Y010032D01*
X007586Y010018D01*
X007605Y010000D01*
X007623Y009981D01*
X007637Y009959D01*
X007649Y009936D01*
X007657Y009911D01*
X007662Y009885D01*
X007664Y009859D01*
X007664Y007059D01*
X007662Y007033D01*
X007657Y007007D01*
X007649Y006982D01*
X007637Y006959D01*
X007623Y006937D01*
X007605Y006918D01*
X007586Y006900D01*
X007564Y006886D01*
X007541Y006874D01*
X007516Y006866D01*
X007490Y006861D01*
X007464Y006859D01*
X006514Y008459D02*
X006114Y008459D01*
X005764Y008459D02*
X001714Y008459D01*
X003914Y011553D02*
X003914Y011853D01*
X004064Y011703D02*
X003764Y011703D01*
X003064Y012353D02*
X002964Y012353D01*
X002964Y011903D01*
X002714Y011903D01*
X002714Y012803D01*
X002964Y012803D01*
X002964Y012353D01*
X000864Y012353D02*
X000866Y012439D01*
X000872Y012525D01*
X000883Y012610D01*
X000898Y012694D01*
X000916Y012778D01*
X000939Y012861D01*
X000966Y012943D01*
X000997Y013023D01*
X001032Y013101D01*
X001071Y013178D01*
X001113Y013253D01*
X001159Y013325D01*
X001208Y013395D01*
X001261Y013463D01*
X001317Y013528D01*
X001377Y013590D01*
X001439Y013650D01*
X001504Y013706D01*
X001572Y013759D01*
X001642Y013808D01*
X001714Y013854D01*
X001789Y013896D01*
X001866Y013935D01*
X001944Y013970D01*
X002024Y014001D01*
X002106Y014028D01*
X002189Y014051D01*
X002273Y014069D01*
X002357Y014084D01*
X002442Y014095D01*
X002528Y014101D01*
X002614Y014103D01*
X002700Y014101D01*
X002786Y014095D01*
X002871Y014084D01*
X002955Y014069D01*
X003039Y014051D01*
X003122Y014028D01*
X003204Y014001D01*
X003284Y013970D01*
X003362Y013935D01*
X003439Y013896D01*
X003514Y013854D01*
X003586Y013808D01*
X003656Y013759D01*
X003724Y013706D01*
X003789Y013650D01*
X003851Y013590D01*
X003911Y013528D01*
X003967Y013463D01*
X004020Y013395D01*
X004069Y013325D01*
X004115Y013253D01*
X004157Y013178D01*
X004196Y013101D01*
X004231Y013023D01*
X004262Y012943D01*
X004289Y012861D01*
X004312Y012778D01*
X004330Y012694D01*
X004345Y012610D01*
X004356Y012525D01*
X004362Y012439D01*
X004364Y012353D01*
X004362Y012267D01*
X004356Y012181D01*
X004345Y012096D01*
X004330Y012012D01*
X004312Y011928D01*
X004289Y011845D01*
X004262Y011763D01*
X004231Y011683D01*
X004196Y011605D01*
X004157Y011528D01*
X004115Y011453D01*
X004069Y011381D01*
X004020Y011311D01*
X003967Y011243D01*
X003911Y011178D01*
X003851Y011116D01*
X003789Y011056D01*
X003724Y011000D01*
X003656Y010947D01*
X003586Y010898D01*
X003514Y010852D01*
X003439Y010810D01*
X003362Y010771D01*
X003284Y010736D01*
X003204Y010705D01*
X003122Y010678D01*
X003039Y010655D01*
X002955Y010637D01*
X002871Y010622D01*
X002786Y010611D01*
X002700Y010605D01*
X002614Y010603D01*
X002528Y010605D01*
X002442Y010611D01*
X002357Y010622D01*
X002273Y010637D01*
X002189Y010655D01*
X002106Y010678D01*
X002024Y010705D01*
X001944Y010736D01*
X001866Y010771D01*
X001789Y010810D01*
X001714Y010852D01*
X001642Y010898D01*
X001572Y010947D01*
X001504Y011000D01*
X001439Y011056D01*
X001377Y011116D01*
X001317Y011178D01*
X001261Y011243D01*
X001208Y011311D01*
X001159Y011381D01*
X001113Y011453D01*
X001071Y011528D01*
X001032Y011605D01*
X000997Y011683D01*
X000966Y011763D01*
X000939Y011845D01*
X000916Y011928D01*
X000898Y012012D01*
X000883Y012096D01*
X000872Y012181D01*
X000866Y012267D01*
X000864Y012353D01*
X002164Y012353D02*
X002364Y012353D01*
X005746Y012101D02*
X005746Y011401D01*
X005748Y011384D01*
X005752Y011367D01*
X005759Y011351D01*
X005769Y011337D01*
X005782Y011324D01*
X005796Y011314D01*
X005812Y011307D01*
X005829Y011303D01*
X005846Y011301D01*
X005996Y011301D01*
X006046Y011351D01*
X007946Y011351D01*
X007996Y011301D01*
X008146Y011301D01*
X008163Y011303D01*
X008180Y011307D01*
X008196Y011314D01*
X008210Y011324D01*
X008223Y011337D01*
X008233Y011351D01*
X008240Y011367D01*
X008244Y011384D01*
X008246Y011401D01*
X008246Y012101D01*
X008244Y012118D01*
X008240Y012135D01*
X008233Y012151D01*
X008223Y012165D01*
X008210Y012178D01*
X008196Y012188D01*
X008180Y012195D01*
X008163Y012199D01*
X008146Y012201D01*
X007996Y012201D01*
X007946Y012151D01*
X006046Y012151D01*
X005996Y012201D01*
X005846Y012201D01*
X005829Y012199D01*
X005812Y012195D01*
X005796Y012188D01*
X005782Y012178D01*
X005769Y012165D01*
X005759Y012151D01*
X005752Y012135D01*
X005748Y012118D01*
X005746Y012101D01*
X005783Y013179D02*
X005933Y013179D01*
X005983Y013229D01*
X007883Y013229D01*
X007933Y013179D01*
X008083Y013179D01*
X008100Y013181D01*
X008117Y013185D01*
X008133Y013192D01*
X008147Y013202D01*
X008160Y013215D01*
X008170Y013229D01*
X008177Y013245D01*
X008181Y013262D01*
X008183Y013279D01*
X008183Y013979D01*
X008181Y013996D01*
X008177Y014013D01*
X008170Y014029D01*
X008160Y014043D01*
X008147Y014056D01*
X008133Y014066D01*
X008117Y014073D01*
X008100Y014077D01*
X008083Y014079D01*
X007933Y014079D01*
X007883Y014029D01*
X005983Y014029D01*
X005933Y014079D01*
X005783Y014079D01*
X005766Y014077D01*
X005749Y014073D01*
X005733Y014066D01*
X005719Y014056D01*
X005706Y014043D01*
X005696Y014029D01*
X005689Y014013D01*
X005685Y013996D01*
X005683Y013979D01*
X005683Y013279D01*
X005685Y013262D01*
X005689Y013245D01*
X005696Y013229D01*
X005706Y013215D01*
X005719Y013202D01*
X005733Y013192D01*
X005749Y013185D01*
X005766Y013181D01*
X005783Y013179D01*
X005783Y014797D02*
X005933Y014797D01*
X005983Y014847D01*
X007883Y014847D01*
X007933Y014797D01*
X008083Y014797D01*
X008100Y014799D01*
X008117Y014803D01*
X008133Y014810D01*
X008147Y014820D01*
X008160Y014833D01*
X008170Y014847D01*
X008177Y014863D01*
X008181Y014880D01*
X008183Y014897D01*
X008183Y015597D01*
X008181Y015614D01*
X008177Y015631D01*
X008170Y015647D01*
X008160Y015661D01*
X008147Y015674D01*
X008133Y015684D01*
X008117Y015691D01*
X008100Y015695D01*
X008083Y015697D01*
X007933Y015697D01*
X007883Y015647D01*
X005983Y015647D01*
X005933Y015697D01*
X005783Y015697D01*
X005766Y015695D01*
X005749Y015691D01*
X005733Y015684D01*
X005719Y015674D01*
X005706Y015661D01*
X005696Y015647D01*
X005689Y015631D01*
X005685Y015614D01*
X005683Y015597D01*
X005683Y014897D01*
X005685Y014880D01*
X005689Y014863D01*
X005696Y014847D01*
X005706Y014833D01*
X005719Y014820D01*
X005733Y014810D01*
X005749Y014803D01*
X005766Y014799D01*
X005783Y014797D01*
X005759Y015899D02*
X005759Y015979D01*
X001829Y015979D01*
X001829Y018579D01*
X001829Y019519D01*
X005759Y019519D01*
X005759Y018579D01*
X005759Y015979D01*
X005759Y015899D02*
X001829Y015899D01*
X001829Y015979D01*
X002609Y016499D02*
X002611Y016527D01*
X002617Y016554D01*
X002626Y016580D01*
X002639Y016605D01*
X002656Y016628D01*
X002675Y016648D01*
X002697Y016665D01*
X002721Y016679D01*
X002747Y016689D01*
X002774Y016696D01*
X002802Y016699D01*
X002830Y016698D01*
X002857Y016693D01*
X002884Y016684D01*
X002909Y016672D01*
X002932Y016657D01*
X002953Y016638D01*
X002971Y016617D01*
X002986Y016593D01*
X002997Y016567D01*
X003005Y016541D01*
X003009Y016513D01*
X003009Y016485D01*
X003005Y016457D01*
X002997Y016431D01*
X002986Y016405D01*
X002971Y016381D01*
X002953Y016360D01*
X002932Y016341D01*
X002909Y016326D01*
X002884Y016314D01*
X002857Y016305D01*
X002830Y016300D01*
X002802Y016299D01*
X002774Y016302D01*
X002747Y016309D01*
X002721Y016319D01*
X002697Y016333D01*
X002675Y016350D01*
X002656Y016370D01*
X002639Y016393D01*
X002626Y016418D01*
X002617Y016444D01*
X002611Y016471D01*
X002609Y016499D01*
X002459Y018579D02*
X001829Y018579D01*
X003159Y018579D02*
X004429Y018579D01*
X005129Y018579D02*
X005759Y018579D01*
X004579Y016499D02*
X004581Y016527D01*
X004587Y016554D01*
X004596Y016580D01*
X004609Y016605D01*
X004626Y016628D01*
X004645Y016648D01*
X004667Y016665D01*
X004691Y016679D01*
X004717Y016689D01*
X004744Y016696D01*
X004772Y016699D01*
X004800Y016698D01*
X004827Y016693D01*
X004854Y016684D01*
X004879Y016672D01*
X004902Y016657D01*
X004923Y016638D01*
X004941Y016617D01*
X004956Y016593D01*
X004967Y016567D01*
X004975Y016541D01*
X004979Y016513D01*
X004979Y016485D01*
X004975Y016457D01*
X004967Y016431D01*
X004956Y016405D01*
X004941Y016381D01*
X004923Y016360D01*
X004902Y016341D01*
X004879Y016326D01*
X004854Y016314D01*
X004827Y016305D01*
X004800Y016300D01*
X004772Y016299D01*
X004744Y016302D01*
X004717Y016309D01*
X004691Y016319D01*
X004667Y016333D01*
X004645Y016350D01*
X004626Y016370D01*
X004609Y016393D01*
X004596Y016418D01*
X004587Y016444D01*
X004581Y016471D01*
X004579Y016499D01*
X010783Y013959D02*
X013083Y013959D01*
X013083Y009959D01*
X012333Y009959D01*
X012331Y009998D01*
X012325Y010037D01*
X012316Y010075D01*
X012303Y010112D01*
X012286Y010148D01*
X012266Y010181D01*
X012242Y010213D01*
X012216Y010242D01*
X012187Y010268D01*
X012155Y010292D01*
X012122Y010312D01*
X012086Y010329D01*
X012049Y010342D01*
X012011Y010351D01*
X011972Y010357D01*
X011933Y010359D01*
X011894Y010357D01*
X011855Y010351D01*
X011817Y010342D01*
X011780Y010329D01*
X011744Y010312D01*
X011711Y010292D01*
X011679Y010268D01*
X011650Y010242D01*
X011624Y010213D01*
X011600Y010181D01*
X011580Y010148D01*
X011563Y010112D01*
X011550Y010075D01*
X011541Y010037D01*
X011535Y009998D01*
X011533Y009959D01*
X010783Y009959D01*
X010783Y013959D01*
X015720Y009173D02*
X015720Y007573D01*
X016720Y007573D01*
X016720Y009173D01*
X015720Y009173D01*
X015970Y008773D02*
X016220Y008373D01*
X016470Y008373D01*
X016220Y008373D02*
X015970Y008373D01*
X016220Y008373D02*
X016220Y008973D01*
X015970Y008773D02*
X016470Y008773D01*
X016220Y008373D01*
X016220Y008123D01*
X018164Y007416D02*
X018164Y007266D01*
X018166Y007249D01*
X018170Y007232D01*
X018177Y007216D01*
X018187Y007202D01*
X018200Y007189D01*
X018214Y007179D01*
X018230Y007172D01*
X018247Y007168D01*
X018264Y007166D01*
X018964Y007166D01*
X018981Y007168D01*
X018998Y007172D01*
X019014Y007179D01*
X019028Y007189D01*
X019041Y007202D01*
X019051Y007216D01*
X019058Y007232D01*
X019062Y007249D01*
X019064Y007266D01*
X019064Y007416D01*
X019014Y007466D01*
X019014Y009366D01*
X019064Y009416D01*
X019064Y009566D01*
X019062Y009583D01*
X019058Y009600D01*
X019051Y009616D01*
X019041Y009630D01*
X019028Y009643D01*
X019014Y009653D01*
X018998Y009660D01*
X018981Y009664D01*
X018964Y009666D01*
X018264Y009666D01*
X018247Y009664D01*
X018230Y009660D01*
X018214Y009653D01*
X018200Y009643D01*
X018187Y009630D01*
X018177Y009616D01*
X018170Y009600D01*
X018166Y009583D01*
X018164Y009566D01*
X018164Y009416D01*
X018214Y009366D01*
X018214Y007466D01*
X018164Y007416D01*
X018114Y004685D02*
X019114Y004685D01*
X019131Y004683D01*
X019148Y004679D01*
X019164Y004672D01*
X019178Y004662D01*
X019191Y004649D01*
X019201Y004635D01*
X019208Y004619D01*
X019212Y004602D01*
X019214Y004585D01*
X019214Y002885D01*
X019212Y002868D01*
X019208Y002851D01*
X019201Y002835D01*
X019191Y002821D01*
X019178Y002808D01*
X019164Y002798D01*
X019148Y002791D01*
X019131Y002787D01*
X019114Y002785D01*
X018114Y002785D01*
X018097Y002787D01*
X018080Y002791D01*
X018064Y002798D01*
X018050Y002808D01*
X018037Y002821D01*
X018027Y002835D01*
X018020Y002851D01*
X018016Y002868D01*
X018014Y002885D01*
X018014Y004585D01*
X018016Y004602D01*
X018020Y004619D01*
X018027Y004635D01*
X018037Y004649D01*
X018050Y004662D01*
X018064Y004672D01*
X018080Y004679D01*
X018097Y004683D01*
X018114Y004685D01*
X018614Y003885D02*
X018614Y003835D01*
X018614Y003635D02*
X018614Y003585D01*
X013001Y004770D02*
X013001Y004920D01*
X012951Y004970D01*
X012951Y006870D01*
X013001Y006920D01*
X013001Y007070D01*
X012999Y007087D01*
X012995Y007104D01*
X012988Y007120D01*
X012978Y007134D01*
X012965Y007147D01*
X012951Y007157D01*
X012935Y007164D01*
X012918Y007168D01*
X012901Y007170D01*
X012201Y007170D01*
X012184Y007168D01*
X012167Y007164D01*
X012151Y007157D01*
X012137Y007147D01*
X012124Y007134D01*
X012114Y007120D01*
X012107Y007104D01*
X012103Y007087D01*
X012101Y007070D01*
X012101Y006920D01*
X012151Y006870D01*
X012151Y004970D01*
X012101Y004920D01*
X012101Y004770D01*
X012103Y004753D01*
X012107Y004736D01*
X012114Y004720D01*
X012124Y004706D01*
X012137Y004693D01*
X012151Y004683D01*
X012167Y004676D01*
X012184Y004672D01*
X012201Y004670D01*
X012901Y004670D01*
X012918Y004672D01*
X012935Y004676D01*
X012951Y004683D01*
X012965Y004693D01*
X012978Y004706D01*
X012988Y004720D01*
X012995Y004736D01*
X012999Y004753D01*
X013001Y004770D01*
X012031Y002207D02*
X011500Y002207D01*
X011874Y001873D02*
X011874Y001696D01*
X012031Y001696D01*
X012031Y001341D01*
X011500Y001341D01*
X011874Y001873D02*
X012031Y001873D01*
X012031Y002207D01*
X016145Y011458D02*
X017145Y011458D01*
X017162Y011460D01*
X017179Y011464D01*
X017195Y011471D01*
X017209Y011481D01*
X017222Y011494D01*
X017232Y011508D01*
X017239Y011524D01*
X017243Y011541D01*
X017245Y011558D01*
X017245Y013258D01*
X017243Y013275D01*
X017239Y013292D01*
X017232Y013308D01*
X017222Y013322D01*
X017209Y013335D01*
X017195Y013345D01*
X017179Y013352D01*
X017162Y013356D01*
X017145Y013358D01*
X016145Y013358D01*
X016128Y013356D01*
X016111Y013352D01*
X016095Y013345D01*
X016081Y013335D01*
X016068Y013322D01*
X016058Y013308D01*
X016051Y013292D01*
X016047Y013275D01*
X016045Y013258D01*
X016045Y011558D01*
X016047Y011541D01*
X016051Y011524D01*
X016058Y011508D01*
X016068Y011494D01*
X016081Y011481D01*
X016095Y011471D01*
X016111Y011464D01*
X016128Y011460D01*
X016145Y011458D01*
X016645Y012258D02*
X016645Y012308D01*
X016645Y012508D02*
X016645Y012558D01*
X017333Y014222D02*
X018483Y014172D01*
X017333Y014222D02*
X017233Y014322D01*
X017233Y018022D01*
X017333Y018122D01*
X018483Y018172D01*
D15*
X015920Y013004D02*
X015920Y012704D01*
X015620Y013004D01*
X015545Y013004D01*
X015470Y012929D01*
X015470Y012779D01*
X015545Y012704D01*
X015470Y012544D02*
X015920Y012544D01*
X015470Y012244D01*
X015920Y012244D01*
X015920Y012083D02*
X015920Y011783D01*
X015620Y012083D01*
X015545Y012083D01*
X015470Y012008D01*
X015470Y011858D01*
X015545Y011783D01*
X017739Y008693D02*
X017664Y008618D01*
X017664Y008468D01*
X017739Y008393D01*
X017664Y008233D02*
X017964Y007933D01*
X017889Y008008D02*
X018114Y008233D01*
X018114Y008393D02*
X017814Y008693D01*
X017739Y008693D01*
X018114Y008693D02*
X018114Y008393D01*
X018114Y007933D02*
X017664Y007933D01*
X017739Y007773D02*
X017664Y007698D01*
X017664Y007548D01*
X017739Y007472D01*
X017739Y007773D02*
X017814Y007773D01*
X018114Y007472D01*
X018114Y007773D01*
X017265Y005000D02*
X017265Y004700D01*
X017715Y004700D01*
X017490Y004700D02*
X017490Y004850D01*
X017490Y004539D02*
X017565Y004464D01*
X017565Y004239D01*
X017715Y004239D02*
X017265Y004239D01*
X017265Y004464D01*
X017340Y004539D01*
X017490Y004539D01*
X017340Y004079D02*
X017640Y003779D01*
X017715Y003854D01*
X017715Y004004D01*
X017640Y004079D01*
X017340Y004079D01*
X017265Y004004D01*
X017265Y003854D01*
X017340Y003779D01*
X017640Y003779D01*
X017640Y003619D02*
X017340Y003619D01*
X017640Y003318D01*
X017715Y003393D01*
X017715Y003544D01*
X017640Y003619D01*
X017340Y003619D02*
X017265Y003544D01*
X017265Y003393D01*
X017340Y003318D01*
X017640Y003318D01*
X017715Y003158D02*
X017715Y002858D01*
X017715Y003008D02*
X017265Y003008D01*
X017415Y002858D01*
X015839Y000968D02*
X015839Y000668D01*
X015839Y000818D02*
X015388Y000818D01*
X015538Y000668D01*
X015388Y000507D02*
X015388Y000207D01*
X015388Y000357D02*
X015839Y000357D01*
X015014Y001308D02*
X015014Y001466D01*
X014464Y001528D02*
X014464Y003178D01*
X015014Y003240D02*
X015014Y003398D01*
X015014Y002466D02*
X015014Y002240D01*
X014464Y003178D02*
X014512Y003213D01*
X014562Y003246D01*
X014614Y003277D01*
X014668Y003304D01*
X014723Y003328D01*
X014780Y003348D01*
X014837Y003366D01*
X014895Y003380D01*
X014954Y003391D01*
X015014Y003398D01*
X015076Y003402D01*
X015139Y003403D01*
X015201Y003399D01*
X015263Y003392D01*
X015324Y003382D01*
X015385Y003367D01*
X015445Y003349D01*
X015504Y003328D01*
X015561Y003303D01*
X015616Y003275D01*
X015670Y003244D01*
X015722Y003209D01*
X015772Y003171D01*
X015819Y003131D01*
X015864Y003087D01*
X015907Y003042D01*
X015946Y002993D01*
X015983Y002943D01*
X016016Y002890D01*
X016047Y002836D01*
X016074Y002779D01*
X016097Y002722D01*
X016117Y002663D01*
X016117Y002043D02*
X016097Y001983D01*
X016073Y001924D01*
X016045Y001867D01*
X016014Y001812D01*
X015979Y001758D01*
X015942Y001707D01*
X015901Y001658D01*
X015857Y001612D01*
X015811Y001568D01*
X015762Y001527D01*
X015711Y001489D01*
X015658Y001455D01*
X015602Y001423D01*
X015545Y001396D01*
X015486Y001371D01*
X015426Y001351D01*
X015365Y001333D01*
X015303Y001320D01*
X015240Y001311D01*
X015177Y001305D01*
X015113Y001303D01*
X015049Y001305D01*
X014986Y001311D01*
X014923Y001320D01*
X014861Y001334D01*
X014800Y001351D01*
X014740Y001372D01*
X014681Y001396D01*
X014624Y001424D01*
X014568Y001456D01*
X014515Y001491D01*
X014464Y001528D01*
X013626Y005303D02*
X013325Y005604D01*
X013250Y005604D01*
X013175Y005529D01*
X013175Y005378D01*
X013250Y005303D01*
X013626Y005303D02*
X013626Y005604D01*
X013626Y005764D02*
X013325Y006064D01*
X013250Y006064D01*
X013175Y005989D01*
X013175Y005839D01*
X013250Y005764D01*
X013626Y005764D02*
X013626Y006064D01*
X013551Y006224D02*
X013250Y006524D01*
X013551Y006524D01*
X013626Y006449D01*
X013626Y006299D01*
X013551Y006224D01*
X013250Y006224D01*
X013175Y006299D01*
X013175Y006449D01*
X013250Y006524D01*
X013175Y006685D02*
X013626Y006685D01*
X013476Y006685D02*
X013175Y006985D01*
X013401Y006760D02*
X013626Y006985D01*
X008722Y006334D02*
X008722Y006184D01*
X008647Y006109D01*
X008422Y006109D01*
X008572Y006109D02*
X008722Y005959D01*
X008422Y005959D02*
X008422Y006410D01*
X008647Y006410D01*
X008722Y006334D01*
X008261Y006334D02*
X008261Y006034D01*
X008186Y005959D01*
X008036Y005959D01*
X007961Y006034D01*
X008261Y006334D01*
X008186Y006410D01*
X008036Y006410D01*
X007961Y006334D01*
X007961Y006034D01*
X007801Y006334D02*
X007501Y006034D01*
X007501Y005959D01*
X007266Y005959D02*
X007266Y006410D01*
X007040Y006184D01*
X007341Y006184D01*
X007501Y006410D02*
X007801Y006410D01*
X007801Y006334D01*
X003900Y003708D02*
X003900Y003633D01*
X003600Y003333D01*
X003900Y003333D01*
X003900Y003708D02*
X003825Y003783D01*
X003675Y003783D01*
X003600Y003708D01*
X001950Y003333D02*
X001650Y003333D01*
X001800Y003333D02*
X001800Y003783D01*
X001650Y003633D01*
X003842Y010565D02*
X004142Y010865D01*
X004142Y010940D01*
X004067Y011015D01*
X003917Y011015D01*
X003842Y010940D01*
X003842Y010565D02*
X004142Y010565D01*
X004303Y010565D02*
X004303Y010640D01*
X004378Y010640D01*
X004378Y010565D01*
X004303Y010565D01*
X004533Y010565D02*
X004833Y010865D01*
X004833Y010940D01*
X004758Y011015D01*
X004608Y011015D01*
X004533Y010940D01*
X004533Y010565D02*
X004833Y010565D01*
X004993Y010415D02*
X005068Y010490D01*
X005068Y010640D01*
X005143Y010565D01*
X005218Y010565D01*
X005293Y010640D01*
X005293Y010790D01*
X005454Y010790D02*
X005604Y010790D01*
X005454Y010565D02*
X005454Y011015D01*
X005754Y011015D01*
X005068Y010790D02*
X005068Y010640D01*
X006512Y012250D02*
X006813Y012250D01*
X006663Y012250D02*
X006663Y012701D01*
X006512Y012551D01*
X006973Y012701D02*
X006973Y012250D01*
X006973Y012401D02*
X007273Y012701D01*
X007048Y012476D02*
X007273Y012250D01*
X007210Y014128D02*
X006985Y014354D01*
X006910Y014279D02*
X007210Y014579D01*
X006910Y014579D02*
X006910Y014128D01*
X006750Y014203D02*
X006675Y014128D01*
X006524Y014128D01*
X006449Y014203D01*
X006750Y014504D01*
X006750Y014203D01*
X006449Y014203D02*
X006449Y014504D01*
X006524Y014579D01*
X006675Y014579D01*
X006750Y014504D01*
X006289Y014128D02*
X005989Y014128D01*
X006139Y014128D02*
X006139Y014579D01*
X005989Y014429D01*
X006620Y015872D02*
X006545Y015947D01*
X006620Y015872D02*
X006770Y015872D01*
X006845Y015947D01*
X006845Y016097D01*
X006770Y016172D01*
X006695Y016172D01*
X006545Y016097D01*
X006545Y016322D01*
X006845Y016322D01*
X007005Y016097D02*
X007231Y016097D01*
X007306Y016022D01*
X007306Y015947D01*
X007231Y015872D01*
X007080Y015872D01*
X007005Y015947D01*
X007005Y016097D01*
X007156Y016247D01*
X007306Y016322D01*
X007466Y016322D02*
X007466Y015872D01*
X007466Y016022D02*
X007766Y016322D01*
X007541Y016097D02*
X007766Y015872D01*
X005444Y016644D02*
X005144Y016644D01*
X005294Y016644D02*
X005294Y017094D01*
X005144Y016944D01*
X003494Y016944D02*
X003494Y017019D01*
X003419Y017094D01*
X003269Y017094D01*
X003194Y017019D01*
X003494Y016944D02*
X003194Y016644D01*
X003494Y016644D01*
X002423Y014578D02*
X002123Y014578D01*
X002123Y014128D01*
X001963Y014203D02*
X001963Y014353D01*
X001963Y014203D02*
X001888Y014128D01*
X001813Y014128D01*
X001738Y014203D01*
X001738Y014053D01*
X001663Y013978D01*
X001738Y014203D02*
X001738Y014353D01*
X001503Y014503D02*
X001503Y014203D01*
X001428Y014128D01*
X001277Y014128D01*
X001202Y014203D01*
X001503Y014503D01*
X001428Y014578D01*
X001277Y014578D01*
X001202Y014503D01*
X001202Y014203D01*
X001042Y014203D02*
X000967Y014128D01*
X000817Y014128D01*
X000742Y014203D01*
X000582Y014203D02*
X000582Y014278D01*
X000507Y014353D01*
X000432Y014353D01*
X000507Y014353D02*
X000582Y014428D01*
X000582Y014503D01*
X000507Y014578D01*
X000357Y014578D01*
X000282Y014503D01*
X000282Y014203D02*
X000357Y014128D01*
X000507Y014128D01*
X000582Y014203D01*
X000742Y014503D02*
X000817Y014578D01*
X000967Y014578D01*
X001042Y014503D01*
X001042Y014428D01*
X000967Y014353D01*
X001042Y014278D01*
X001042Y014203D01*
X000967Y014353D02*
X000892Y014353D01*
X002123Y014353D02*
X002273Y014353D01*
D16*
X007818Y004491D02*
X007818Y001066D01*
X011460Y001066D01*
X011460Y004491D01*
X007818Y004491D01*
X016345Y012308D02*
X016645Y012308D01*
X016945Y012308D01*
X016945Y012508D02*
X016645Y012508D01*
X016345Y012508D01*
X018314Y003835D02*
X018614Y003835D01*
X018914Y003835D01*
X018914Y003635D02*
X018614Y003635D01*
X018314Y003635D01*
D17*
X018614Y006996D03*
X018614Y009836D03*
X012551Y007340D03*
X012551Y004500D03*
D18*
X009077Y005459D03*
X006237Y005459D03*
X005576Y011751D03*
X005513Y013629D03*
X005513Y015247D03*
X008353Y015247D03*
X008353Y013629D03*
X008416Y011751D03*
D19*
X017473Y017942D03*
D20*
X018783Y016172D03*
D21*
X018533Y017897D03*
X018533Y014447D03*
D22*
X018533Y015672D03*
X018533Y016672D03*
D23*
X016220Y007823D03*
D24*
X016220Y007198D03*
X016220Y009548D03*
D25*
X010003Y017459D02*
X010006Y017573D01*
X010014Y017687D01*
X010028Y017800D01*
X010048Y017912D01*
X010073Y018023D01*
X010103Y018133D01*
X010139Y018242D01*
X010180Y018348D01*
X010226Y018452D01*
X010277Y018554D01*
X010333Y018653D01*
X010394Y018750D01*
X010460Y018843D01*
X010530Y018933D01*
X010605Y019019D01*
X010683Y019102D01*
X010766Y019180D01*
X010852Y019255D01*
X010942Y019325D01*
X011035Y019391D01*
X011132Y019452D01*
X011231Y019508D01*
X011333Y019559D01*
X011437Y019605D01*
X011543Y019646D01*
X011652Y019682D01*
X011762Y019712D01*
X011873Y019737D01*
X011985Y019757D01*
X012098Y019771D01*
X012212Y019779D01*
X012326Y019782D01*
X012440Y019779D01*
X012554Y019771D01*
X012667Y019757D01*
X012779Y019737D01*
X012890Y019712D01*
X013000Y019682D01*
X013109Y019646D01*
X013215Y019605D01*
X013319Y019559D01*
X013421Y019508D01*
X013520Y019452D01*
X013617Y019391D01*
X013710Y019325D01*
X013800Y019255D01*
X013886Y019180D01*
X013969Y019102D01*
X014047Y019019D01*
X014122Y018933D01*
X014192Y018843D01*
X014258Y018750D01*
X014319Y018653D01*
X014375Y018554D01*
X014426Y018452D01*
X014472Y018348D01*
X014513Y018242D01*
X014549Y018133D01*
X014579Y018023D01*
X014604Y017912D01*
X014624Y017800D01*
X014638Y017687D01*
X014646Y017573D01*
X014649Y017459D01*
X014646Y017345D01*
X014638Y017231D01*
X014624Y017118D01*
X014604Y017006D01*
X014579Y016895D01*
X014549Y016785D01*
X014513Y016676D01*
X014472Y016570D01*
X014426Y016466D01*
X014375Y016364D01*
X014319Y016265D01*
X014258Y016168D01*
X014192Y016075D01*
X014122Y015985D01*
X014047Y015899D01*
X013969Y015816D01*
X013886Y015738D01*
X013800Y015663D01*
X013710Y015593D01*
X013617Y015527D01*
X013520Y015466D01*
X013421Y015410D01*
X013319Y015359D01*
X013215Y015313D01*
X013109Y015272D01*
X013000Y015236D01*
X012890Y015206D01*
X012779Y015181D01*
X012667Y015161D01*
X012554Y015147D01*
X012440Y015139D01*
X012326Y015136D01*
X012212Y015139D01*
X012098Y015147D01*
X011985Y015161D01*
X011873Y015181D01*
X011762Y015206D01*
X011652Y015236D01*
X011543Y015272D01*
X011437Y015313D01*
X011333Y015359D01*
X011231Y015410D01*
X011132Y015466D01*
X011035Y015527D01*
X010942Y015593D01*
X010852Y015663D01*
X010766Y015738D01*
X010683Y015816D01*
X010605Y015899D01*
X010530Y015985D01*
X010460Y016075D01*
X010394Y016168D01*
X010333Y016265D01*
X010277Y016364D01*
X010226Y016466D01*
X010180Y016570D01*
X010139Y016676D01*
X010103Y016785D01*
X010073Y016895D01*
X010048Y017006D01*
X010028Y017118D01*
X010014Y017231D01*
X010006Y017345D01*
X010003Y017459D01*
D26*
X002389Y012353D03*
M02*
