G75*
G70*
%OFA0B0*%
%FSLAX24Y24*%
%IPPOS*%
%LPD*%
%AMOC8*
5,1,8,0,0,1.08239X$1,22.5*
%
%ADD10C,0.0000*%
%ADD11C,0.0520*%
%ADD12OC8,0.0600*%
%ADD13OC8,0.0630*%
%ADD14OC8,0.0520*%
%ADD15C,0.0600*%
%ADD16C,0.0660*%
%ADD17C,0.0650*%
%ADD18C,0.1000*%
%ADD19OC8,0.1000*%
%ADD20C,0.0440*%
%ADD21C,0.0705*%
%ADD22C,0.0200*%
%ADD23C,0.0240*%
%ADD24R,0.0356X0.0356*%
%ADD25C,0.0300*%
D10*
X000220Y000459D02*
X000220Y019955D01*
X019984Y019955D01*
X019984Y000459D01*
X000220Y000459D01*
X000810Y001247D02*
X000812Y001274D01*
X000818Y001301D01*
X000827Y001327D01*
X000840Y001351D01*
X000856Y001374D01*
X000875Y001393D01*
X000897Y001410D01*
X000921Y001424D01*
X000946Y001434D01*
X000973Y001441D01*
X001000Y001444D01*
X001028Y001443D01*
X001055Y001438D01*
X001081Y001430D01*
X001105Y001418D01*
X001128Y001402D01*
X001149Y001384D01*
X001166Y001363D01*
X001181Y001339D01*
X001192Y001314D01*
X001200Y001288D01*
X001204Y001261D01*
X001204Y001233D01*
X001200Y001206D01*
X001192Y001180D01*
X001181Y001155D01*
X001166Y001131D01*
X001149Y001110D01*
X001128Y001092D01*
X001106Y001076D01*
X001081Y001064D01*
X001055Y001056D01*
X001028Y001051D01*
X001000Y001050D01*
X000973Y001053D01*
X000946Y001060D01*
X000921Y001070D01*
X000897Y001084D01*
X000875Y001101D01*
X000856Y001120D01*
X000840Y001143D01*
X000827Y001167D01*
X000818Y001193D01*
X000812Y001220D01*
X000810Y001247D01*
X000810Y018963D02*
X000812Y018990D01*
X000818Y019017D01*
X000827Y019043D01*
X000840Y019067D01*
X000856Y019090D01*
X000875Y019109D01*
X000897Y019126D01*
X000921Y019140D01*
X000946Y019150D01*
X000973Y019157D01*
X001000Y019160D01*
X001028Y019159D01*
X001055Y019154D01*
X001081Y019146D01*
X001105Y019134D01*
X001128Y019118D01*
X001149Y019100D01*
X001166Y019079D01*
X001181Y019055D01*
X001192Y019030D01*
X001200Y019004D01*
X001204Y018977D01*
X001204Y018949D01*
X001200Y018922D01*
X001192Y018896D01*
X001181Y018871D01*
X001166Y018847D01*
X001149Y018826D01*
X001128Y018808D01*
X001106Y018792D01*
X001081Y018780D01*
X001055Y018772D01*
X001028Y018767D01*
X001000Y018766D01*
X000973Y018769D01*
X000946Y018776D01*
X000921Y018786D01*
X000897Y018800D01*
X000875Y018817D01*
X000856Y018836D01*
X000840Y018859D01*
X000827Y018883D01*
X000818Y018909D01*
X000812Y018936D01*
X000810Y018963D01*
X018921Y018963D02*
X018923Y018990D01*
X018929Y019017D01*
X018938Y019043D01*
X018951Y019067D01*
X018967Y019090D01*
X018986Y019109D01*
X019008Y019126D01*
X019032Y019140D01*
X019057Y019150D01*
X019084Y019157D01*
X019111Y019160D01*
X019139Y019159D01*
X019166Y019154D01*
X019192Y019146D01*
X019216Y019134D01*
X019239Y019118D01*
X019260Y019100D01*
X019277Y019079D01*
X019292Y019055D01*
X019303Y019030D01*
X019311Y019004D01*
X019315Y018977D01*
X019315Y018949D01*
X019311Y018922D01*
X019303Y018896D01*
X019292Y018871D01*
X019277Y018847D01*
X019260Y018826D01*
X019239Y018808D01*
X019217Y018792D01*
X019192Y018780D01*
X019166Y018772D01*
X019139Y018767D01*
X019111Y018766D01*
X019084Y018769D01*
X019057Y018776D01*
X019032Y018786D01*
X019008Y018800D01*
X018986Y018817D01*
X018967Y018836D01*
X018951Y018859D01*
X018938Y018883D01*
X018929Y018909D01*
X018923Y018936D01*
X018921Y018963D01*
X018921Y001247D02*
X018923Y001274D01*
X018929Y001301D01*
X018938Y001327D01*
X018951Y001351D01*
X018967Y001374D01*
X018986Y001393D01*
X019008Y001410D01*
X019032Y001424D01*
X019057Y001434D01*
X019084Y001441D01*
X019111Y001444D01*
X019139Y001443D01*
X019166Y001438D01*
X019192Y001430D01*
X019216Y001418D01*
X019239Y001402D01*
X019260Y001384D01*
X019277Y001363D01*
X019292Y001339D01*
X019303Y001314D01*
X019311Y001288D01*
X019315Y001261D01*
X019315Y001233D01*
X019311Y001206D01*
X019303Y001180D01*
X019292Y001155D01*
X019277Y001131D01*
X019260Y001110D01*
X019239Y001092D01*
X019217Y001076D01*
X019192Y001064D01*
X019166Y001056D01*
X019139Y001051D01*
X019111Y001050D01*
X019084Y001053D01*
X019057Y001060D01*
X019032Y001070D01*
X019008Y001084D01*
X018986Y001101D01*
X018967Y001120D01*
X018951Y001143D01*
X018938Y001167D01*
X018929Y001193D01*
X018923Y001220D01*
X018921Y001247D01*
D11*
X013693Y010459D02*
X013173Y010459D01*
X013173Y011459D02*
X013693Y011459D01*
X013693Y012459D02*
X013173Y012459D01*
X013173Y013459D02*
X013693Y013459D01*
X010693Y013459D02*
X010173Y013459D01*
X010173Y012459D02*
X010693Y012459D01*
X010693Y011459D02*
X010173Y011459D01*
X010173Y010459D02*
X010693Y010459D01*
D12*
X007064Y008459D03*
X001164Y008459D03*
D13*
X016645Y011908D03*
X016645Y012908D03*
X018614Y004235D03*
X018614Y003235D03*
D14*
X015864Y002353D03*
X015114Y001853D03*
X015114Y002853D03*
X012551Y003920D03*
X009657Y005459D03*
X012551Y007920D03*
X008996Y011751D03*
X008933Y013629D03*
X008933Y015247D03*
X004933Y015247D03*
X004933Y013629D03*
X004996Y011751D03*
X005657Y005459D03*
X018614Y006416D03*
X018614Y010416D03*
D15*
X018233Y015172D02*
X017633Y015172D01*
X017633Y016172D02*
X018233Y016172D01*
X018233Y017172D02*
X017633Y017172D01*
D16*
X016220Y010373D03*
X016220Y006373D03*
D17*
X014295Y017135D02*
X014295Y017784D01*
X010358Y017784D02*
X010358Y017135D01*
D18*
X003614Y012353D03*
D19*
X001614Y012353D03*
D20*
X009826Y003778D03*
X010826Y002778D03*
X009826Y001778D03*
D21*
X004393Y002205D02*
X004393Y002910D01*
X002425Y002910D02*
X002425Y002205D01*
X002811Y017516D02*
X002811Y018221D01*
X004779Y018221D02*
X004779Y017516D01*
D22*
X004779Y017869D02*
X004970Y017959D01*
X009720Y017959D01*
X010220Y017459D01*
X010358Y017459D01*
X008933Y013629D02*
X008970Y013459D01*
X009970Y012459D01*
X010433Y012459D01*
X010470Y012459D01*
X011470Y011459D01*
X013433Y011459D01*
X015220Y011459D01*
X015470Y011709D01*
X016470Y011709D01*
X016645Y011908D01*
X014970Y013959D02*
X018470Y013959D01*
X019720Y015209D01*
X019720Y017209D01*
X017970Y017209D01*
X017933Y017172D01*
X017720Y016209D02*
X017933Y016172D01*
X017720Y016209D02*
X016720Y016209D01*
X015470Y017459D01*
X014295Y017459D01*
X014970Y013959D02*
X013470Y012459D01*
X013433Y012459D01*
X010433Y010459D02*
X006470Y010459D01*
X005220Y011709D01*
X004996Y011751D01*
X004970Y011959D01*
X004470Y012459D01*
X003720Y012459D01*
X003614Y012353D01*
X004970Y013459D02*
X004933Y013629D01*
X004970Y013459D02*
X006470Y011959D01*
X008970Y011959D01*
X008996Y011751D01*
X010470Y004209D02*
X012470Y004209D01*
X012720Y003959D01*
X012551Y003920D01*
X010970Y002709D02*
X010826Y002778D01*
X010970Y002709D02*
X012970Y000709D01*
X015220Y000709D01*
X016220Y001709D01*
X016220Y002209D01*
X015970Y002209D01*
X015864Y002353D01*
X010470Y004209D02*
X009970Y003709D01*
X009826Y003778D01*
D23*
X009350Y003321D02*
X005600Y003321D01*
X005579Y003401D02*
X005411Y003692D01*
X005175Y003929D01*
X004884Y004096D01*
X004561Y004183D01*
X004226Y004183D01*
X003902Y004096D01*
X003612Y003929D01*
X003375Y003692D01*
X003207Y003401D01*
X003121Y003078D01*
X003121Y002038D01*
X003207Y001714D01*
X003375Y001424D01*
X003612Y001187D01*
X003902Y001019D01*
X004226Y000933D01*
X004561Y000933D01*
X004884Y001019D01*
X005175Y001187D01*
X005411Y001424D01*
X005579Y001714D01*
X005666Y002038D01*
X005666Y003078D01*
X005579Y003401D01*
X005488Y003560D02*
X009202Y003560D01*
X009166Y003647D02*
X009267Y003404D01*
X009452Y003219D01*
X009695Y003118D01*
X009958Y003118D01*
X010187Y003213D01*
X010251Y003236D01*
X010262Y003246D01*
X010276Y003252D01*
X010341Y003317D01*
X010410Y003379D01*
X010417Y003393D01*
X010694Y003669D01*
X011851Y003669D01*
X011851Y003630D01*
X012261Y003220D01*
X012841Y003220D01*
X013251Y003630D01*
X013251Y003829D01*
X013260Y003852D01*
X013260Y003915D01*
X013270Y003977D01*
X013260Y004021D01*
X013260Y004067D01*
X013251Y004089D01*
X013251Y004210D01*
X012841Y004620D01*
X012823Y004620D01*
X012776Y004667D01*
X012577Y004749D01*
X010363Y004749D01*
X010164Y004667D01*
X010012Y004515D01*
X009935Y004438D01*
X009695Y004438D01*
X009452Y004338D01*
X009267Y004152D01*
X009166Y003910D01*
X009166Y003647D01*
X009166Y003798D02*
X005305Y003798D01*
X004987Y004037D02*
X009219Y004037D01*
X009390Y004275D02*
X000660Y004275D01*
X000660Y004037D02*
X003800Y004037D01*
X003482Y003798D02*
X000660Y003798D01*
X000660Y003560D02*
X003299Y003560D01*
X003186Y003321D02*
X002823Y003321D01*
X002798Y003347D02*
X002861Y003283D01*
X002914Y003210D01*
X002955Y003130D01*
X002983Y003044D01*
X002997Y002955D01*
X002997Y002558D01*
X002425Y002558D01*
X002425Y002558D01*
X002425Y002558D01*
X002425Y003483D01*
X002470Y003483D01*
X002559Y003469D01*
X002644Y003441D01*
X002725Y003400D01*
X002798Y003347D01*
X002971Y003083D02*
X003122Y003083D01*
X003121Y002844D02*
X002997Y002844D01*
X002997Y002606D02*
X003121Y002606D01*
X002997Y002558D02*
X002425Y002558D01*
X002425Y003483D01*
X002380Y003483D01*
X002291Y003469D01*
X002205Y003441D01*
X002125Y003400D01*
X002052Y003347D01*
X001988Y003283D01*
X001935Y003210D01*
X001894Y003130D01*
X001866Y003044D01*
X001852Y002955D01*
X001852Y002558D01*
X002425Y002558D01*
X002425Y001633D01*
X002470Y001633D01*
X002559Y001647D01*
X002644Y001675D01*
X002725Y001716D01*
X002798Y001769D01*
X002861Y001832D01*
X002914Y001905D01*
X002955Y001985D01*
X002983Y002071D01*
X002997Y002160D01*
X002997Y002558D01*
X002997Y002367D02*
X003121Y002367D01*
X003121Y002129D02*
X002992Y002129D01*
X002904Y001890D02*
X003160Y001890D01*
X003243Y001652D02*
X002574Y001652D01*
X002425Y001652D02*
X002425Y001652D01*
X002425Y001633D02*
X002425Y002558D01*
X002425Y002558D01*
X002425Y002558D01*
X001852Y002558D01*
X001852Y002160D01*
X001866Y002071D01*
X001894Y001985D01*
X001935Y001905D01*
X001988Y001832D01*
X002052Y001769D01*
X002125Y001716D01*
X002205Y001675D01*
X002291Y001647D01*
X002380Y001633D01*
X002425Y001633D01*
X002275Y001652D02*
X001503Y001652D01*
X001547Y001607D02*
X001368Y001787D01*
X001134Y001884D01*
X000881Y001884D01*
X000660Y001792D01*
X000660Y008228D01*
X000948Y007939D01*
X001164Y007939D01*
X001379Y007939D01*
X001684Y008244D01*
X001684Y008459D01*
X001164Y008459D01*
X001164Y008459D01*
X001164Y007939D01*
X001164Y008459D01*
X001164Y008459D01*
X001684Y008459D01*
X001684Y008675D01*
X001379Y008979D01*
X001164Y008979D01*
X001164Y008459D01*
X001164Y008459D01*
X001164Y008979D01*
X000948Y008979D01*
X000660Y008691D01*
X000660Y018418D01*
X000881Y018326D01*
X001134Y018326D01*
X001368Y018423D01*
X001547Y018603D01*
X001644Y018837D01*
X001644Y019090D01*
X001547Y019324D01*
X001368Y019503D01*
X001339Y019515D01*
X018786Y019515D01*
X018757Y019503D01*
X018578Y019324D01*
X018481Y019090D01*
X018481Y018837D01*
X018578Y018603D01*
X018757Y018423D01*
X018991Y018326D01*
X019244Y018326D01*
X019478Y018423D01*
X019544Y018489D01*
X019544Y017749D01*
X018702Y017749D01*
X018652Y017799D01*
X018380Y017912D01*
X017485Y017912D01*
X017213Y017799D01*
X017005Y017591D01*
X016893Y017319D01*
X016893Y017025D01*
X016971Y016835D01*
X015996Y017811D01*
X015821Y017985D01*
X015593Y018079D01*
X015087Y018079D01*
X015011Y018263D01*
X014773Y018500D01*
X014463Y018629D01*
X014127Y018629D01*
X013816Y018500D01*
X013579Y018263D01*
X013450Y017952D01*
X013450Y016966D01*
X013579Y016656D01*
X013816Y016418D01*
X014127Y016290D01*
X014463Y016290D01*
X014773Y016418D01*
X015011Y016656D01*
X015087Y016839D01*
X015213Y016839D01*
X016369Y015684D01*
X016597Y015589D01*
X017056Y015589D01*
X017168Y015477D01*
X017201Y015463D01*
X017188Y015444D01*
X017151Y015372D01*
X017125Y015294D01*
X017113Y015213D01*
X017113Y015172D01*
X017933Y015172D01*
X018753Y015172D01*
X018753Y015213D01*
X018740Y015294D01*
X018715Y015372D01*
X018677Y015444D01*
X018664Y015463D01*
X018697Y015477D01*
X018928Y015707D01*
X019053Y016009D01*
X019053Y016335D01*
X018928Y016636D01*
X018895Y016669D01*
X019180Y016669D01*
X019180Y015433D01*
X018709Y014962D01*
X018715Y014972D01*
X018740Y015050D01*
X018753Y015131D01*
X018753Y015172D01*
X017933Y015172D01*
X017933Y015172D01*
X017933Y014652D01*
X018274Y014652D01*
X018354Y014665D01*
X018432Y014690D01*
X018442Y014695D01*
X018246Y014499D01*
X014863Y014499D01*
X014664Y014417D01*
X014512Y014265D01*
X014194Y013947D01*
X014089Y014053D01*
X013832Y014159D01*
X013033Y014159D01*
X012776Y014053D01*
X012579Y013856D01*
X012473Y013599D01*
X012473Y013320D01*
X012579Y013063D01*
X012683Y012959D01*
X012579Y012856D01*
X012473Y012599D01*
X012473Y012320D01*
X012579Y012063D01*
X012643Y011999D01*
X011694Y011999D01*
X011387Y012306D01*
X011393Y012320D01*
X011393Y012599D01*
X011286Y012856D01*
X011183Y012959D01*
X011286Y013063D01*
X011393Y013320D01*
X011393Y013599D01*
X011286Y013856D01*
X011089Y014053D01*
X010832Y014159D01*
X010033Y014159D01*
X009776Y014053D01*
X009633Y013909D01*
X009633Y013919D01*
X009223Y014329D01*
X008643Y014329D01*
X008233Y013919D01*
X008233Y013339D01*
X008643Y012929D01*
X008737Y012929D01*
X009213Y012452D01*
X009146Y012471D01*
X009077Y012499D01*
X009044Y012499D01*
X009011Y012508D01*
X008937Y012499D01*
X006694Y012499D01*
X005633Y013560D01*
X005633Y013919D01*
X005223Y014329D01*
X004643Y014329D01*
X004233Y013919D01*
X004233Y013339D01*
X004572Y012999D01*
X004297Y012999D01*
X004146Y013150D01*
X003801Y013293D01*
X003427Y013293D01*
X003081Y013150D01*
X002817Y012885D01*
X002674Y012540D01*
X002674Y012166D01*
X002817Y011821D01*
X003081Y011556D01*
X003427Y011413D01*
X003801Y011413D01*
X004146Y011556D01*
X004296Y011706D01*
X004296Y011461D01*
X004706Y011051D01*
X005115Y011051D01*
X006164Y010002D01*
X006363Y009919D01*
X009723Y009919D01*
X009776Y009866D01*
X010033Y009759D01*
X010832Y009759D01*
X011089Y009866D01*
X011286Y010063D01*
X011393Y010320D01*
X011393Y010599D01*
X011286Y010856D01*
X011183Y010959D01*
X011207Y010984D01*
X011363Y010919D01*
X012723Y010919D01*
X012776Y010866D01*
X012865Y010829D01*
X012860Y010825D01*
X012806Y010772D01*
X012762Y010711D01*
X012728Y010644D01*
X012704Y010572D01*
X012693Y010497D01*
X012693Y010459D01*
X012693Y010422D01*
X012704Y010347D01*
X012728Y010275D01*
X012762Y010208D01*
X012806Y010147D01*
X012860Y010093D01*
X012921Y010049D01*
X012988Y010014D01*
X013060Y009991D01*
X013135Y009979D01*
X013433Y009979D01*
X013730Y009979D01*
X013805Y009991D01*
X013877Y010014D01*
X013944Y010049D01*
X014005Y010093D01*
X014059Y010147D01*
X014103Y010208D01*
X014137Y010275D01*
X014161Y010347D01*
X014173Y010422D01*
X014173Y010459D01*
X013433Y010459D01*
X013433Y010459D01*
X013433Y009979D01*
X013433Y010459D01*
X013433Y010459D01*
X014173Y010459D01*
X014173Y010497D01*
X014161Y010572D01*
X014137Y010644D01*
X014103Y010711D01*
X014059Y010772D01*
X014005Y010825D01*
X014000Y010829D01*
X014089Y010866D01*
X014143Y010919D01*
X015327Y010919D01*
X015526Y011002D01*
X015694Y011169D01*
X015922Y011169D01*
X015739Y011093D01*
X015499Y010854D01*
X015370Y010542D01*
X015370Y010204D01*
X015499Y009891D01*
X015739Y009652D01*
X016051Y009523D01*
X016389Y009523D01*
X016701Y009652D01*
X016941Y009891D01*
X017070Y010204D01*
X017070Y010542D01*
X016941Y010854D01*
X016701Y011093D01*
X016557Y011153D01*
X016958Y011153D01*
X017400Y011595D01*
X017400Y012221D01*
X017057Y012564D01*
X017180Y012687D01*
X017180Y012908D01*
X016645Y012908D01*
X016110Y012908D01*
X016110Y012687D01*
X016233Y012564D01*
X015919Y012249D01*
X015363Y012249D01*
X015164Y012167D01*
X015012Y012015D01*
X014996Y011999D01*
X014223Y011999D01*
X014286Y012063D01*
X014393Y012320D01*
X014393Y012599D01*
X014387Y012612D01*
X015194Y013419D01*
X016400Y013419D01*
X016110Y013130D01*
X016110Y012908D01*
X016645Y012908D01*
X016645Y012908D01*
X016645Y012908D01*
X017180Y012908D01*
X017180Y013130D01*
X016891Y013419D01*
X018577Y013419D01*
X018776Y013502D01*
X018928Y013653D01*
X018928Y013653D01*
X019544Y014269D01*
X019544Y001721D01*
X019478Y001787D01*
X019244Y001884D01*
X018991Y001884D01*
X018757Y001787D01*
X018578Y001607D01*
X018481Y001373D01*
X018481Y001120D01*
X018572Y000899D01*
X016174Y000899D01*
X016526Y001252D01*
X016678Y001403D01*
X016760Y001602D01*
X016760Y002317D01*
X016678Y002515D01*
X016564Y002629D01*
X016564Y002643D01*
X016154Y003053D01*
X015814Y003053D01*
X015814Y003143D01*
X015404Y003553D01*
X014824Y003553D01*
X014414Y003143D01*
X014414Y002563D01*
X014779Y002197D01*
X014634Y002052D01*
X014634Y001853D01*
X014634Y001654D01*
X014915Y001373D01*
X015114Y001373D01*
X015120Y001373D01*
X014996Y001249D01*
X013194Y001249D01*
X011453Y002990D01*
X011386Y003152D01*
X011200Y003338D01*
X010958Y003438D01*
X010695Y003438D01*
X010452Y003338D01*
X010267Y003152D01*
X010166Y002910D01*
X010166Y002647D01*
X010267Y002404D01*
X010452Y002219D01*
X010695Y002118D01*
X010797Y002118D01*
X012016Y000899D01*
X001553Y000899D01*
X001644Y001120D01*
X001644Y001373D01*
X001547Y001607D01*
X001628Y001413D02*
X003386Y001413D01*
X003633Y001175D02*
X001644Y001175D01*
X001568Y000936D02*
X004212Y000936D01*
X004574Y000936D02*
X011979Y000936D01*
X011741Y001175D02*
X010094Y001175D01*
X010200Y001219D02*
X010386Y001404D01*
X010486Y001647D01*
X010486Y001910D01*
X010386Y002152D01*
X010200Y002338D01*
X009958Y002438D01*
X009695Y002438D01*
X009452Y002338D01*
X009267Y002152D01*
X009166Y001910D01*
X009166Y001647D01*
X009267Y001404D01*
X009452Y001219D01*
X009695Y001118D01*
X009958Y001118D01*
X010200Y001219D01*
X010390Y001413D02*
X011502Y001413D01*
X011264Y001652D02*
X010486Y001652D01*
X010486Y001890D02*
X011025Y001890D01*
X010669Y002129D02*
X010395Y002129D01*
X010304Y002367D02*
X010129Y002367D01*
X010183Y002606D02*
X005666Y002606D01*
X005666Y002844D02*
X010166Y002844D01*
X010238Y003083D02*
X005664Y003083D01*
X005666Y002367D02*
X009524Y002367D01*
X009257Y002129D02*
X005666Y002129D01*
X005626Y001890D02*
X009166Y001890D01*
X009166Y001652D02*
X005543Y001652D01*
X005401Y001413D02*
X009263Y001413D01*
X009558Y001175D02*
X005153Y001175D01*
X002425Y001890D02*
X002425Y001890D01*
X002425Y002129D02*
X002425Y002129D01*
X002425Y002367D02*
X002425Y002367D01*
X002425Y002606D02*
X002425Y002606D01*
X002425Y002844D02*
X002425Y002844D01*
X002425Y003083D02*
X002425Y003083D01*
X002425Y003321D02*
X002425Y003321D01*
X002026Y003321D02*
X000660Y003321D01*
X000660Y003083D02*
X001879Y003083D01*
X001852Y002844D02*
X000660Y002844D01*
X000660Y002606D02*
X001852Y002606D01*
X001852Y002367D02*
X000660Y002367D01*
X000660Y002129D02*
X001857Y002129D01*
X001946Y001890D02*
X000660Y001890D01*
X000660Y004514D02*
X010011Y004514D01*
X009947Y004759D02*
X010357Y005169D01*
X010357Y005749D01*
X009947Y006159D01*
X009367Y006159D01*
X008957Y005749D01*
X008957Y005169D01*
X009367Y004759D01*
X009947Y004759D01*
X010178Y004991D02*
X019544Y004991D01*
X019544Y005229D02*
X016740Y005229D01*
X016702Y005208D02*
X016988Y005372D01*
X017220Y005605D01*
X017385Y005890D01*
X017470Y006208D01*
X017470Y006537D01*
X017385Y006855D01*
X017220Y007140D01*
X016988Y007373D01*
X016702Y007538D01*
X016638Y007555D01*
X015576Y008616D01*
X015377Y008816D01*
X015133Y008956D01*
X014861Y009029D01*
X013110Y009029D01*
X013039Y009100D01*
X012843Y009100D01*
X012826Y009116D01*
X012627Y009316D01*
X012383Y009456D01*
X012111Y009529D01*
X007719Y009529D01*
X007569Y009679D01*
X006558Y009679D01*
X005844Y008965D01*
X005844Y007954D01*
X006558Y007239D01*
X007569Y007239D01*
X007719Y007389D01*
X011413Y007389D01*
X012062Y006740D01*
X013039Y006740D01*
X013189Y006889D01*
X014277Y006889D01*
X014974Y006192D01*
X015055Y005890D01*
X015220Y005605D01*
X015452Y005372D01*
X015738Y005208D01*
X016055Y005123D01*
X016385Y005123D01*
X016702Y005208D01*
X017083Y005468D02*
X019544Y005468D01*
X019544Y005706D02*
X017279Y005706D01*
X017399Y005945D02*
X018095Y005945D01*
X017914Y006126D02*
X018324Y005716D01*
X018904Y005716D01*
X019314Y006126D01*
X019314Y006706D01*
X018904Y007116D01*
X018324Y007116D01*
X017914Y006706D01*
X017914Y006126D01*
X017914Y006183D02*
X017463Y006183D01*
X017470Y006422D02*
X017914Y006422D01*
X017914Y006660D02*
X017437Y006660D01*
X017360Y006899D02*
X018107Y006899D01*
X017222Y007137D02*
X019544Y007137D01*
X019544Y007376D02*
X016983Y007376D01*
X016578Y007614D02*
X019544Y007614D01*
X019544Y007853D02*
X016340Y007853D01*
X016101Y008091D02*
X019544Y008091D01*
X019544Y008330D02*
X015863Y008330D01*
X015624Y008568D02*
X019544Y008568D01*
X019544Y008807D02*
X015386Y008807D01*
X015630Y009761D02*
X010835Y009761D01*
X011223Y009999D02*
X013035Y009999D01*
X012747Y010238D02*
X011359Y010238D01*
X011393Y010476D02*
X012693Y010476D01*
X012693Y010459D02*
X013433Y010459D01*
X012693Y010459D01*
X012765Y010715D02*
X011344Y010715D01*
X011280Y010953D02*
X011189Y010953D01*
X011547Y012146D02*
X012545Y012146D01*
X012473Y012384D02*
X011393Y012384D01*
X011383Y012623D02*
X012483Y012623D01*
X012585Y012861D02*
X011281Y012861D01*
X011301Y013100D02*
X012564Y013100D01*
X012473Y013338D02*
X011393Y013338D01*
X011393Y013577D02*
X012473Y013577D01*
X012562Y013815D02*
X011303Y013815D01*
X011086Y014054D02*
X012779Y014054D01*
X014086Y014054D02*
X014301Y014054D01*
X014539Y014292D02*
X009259Y014292D01*
X009223Y014547D02*
X009633Y014957D01*
X009633Y015537D01*
X009223Y015947D01*
X008643Y015947D01*
X008233Y015537D01*
X008233Y014957D01*
X008643Y014547D01*
X009223Y014547D01*
X009445Y014769D02*
X017302Y014769D01*
X017294Y014775D02*
X017360Y014727D01*
X017433Y014690D01*
X017511Y014665D01*
X017592Y014652D01*
X017933Y014652D01*
X017933Y015172D01*
X017933Y015172D01*
X017933Y015172D01*
X017113Y015172D01*
X017113Y015131D01*
X017125Y015050D01*
X017151Y014972D01*
X017188Y014899D01*
X017236Y014833D01*
X017294Y014775D01*
X017139Y015008D02*
X009633Y015008D01*
X009633Y015246D02*
X017118Y015246D01*
X017160Y015485D02*
X009633Y015485D01*
X009446Y015723D02*
X016329Y015723D01*
X016091Y015962D02*
X000660Y015962D01*
X000660Y016200D02*
X015852Y016200D01*
X015614Y016439D02*
X014794Y016439D01*
X015020Y016677D02*
X015375Y016677D01*
X016175Y017631D02*
X017046Y017631D01*
X016923Y017393D02*
X016413Y017393D01*
X016652Y017154D02*
X016893Y017154D01*
X016890Y016916D02*
X016938Y016916D01*
X017384Y017870D02*
X015936Y017870D01*
X015075Y018108D02*
X019544Y018108D01*
X019544Y017870D02*
X018481Y017870D01*
X018942Y018347D02*
X014927Y018347D01*
X014568Y018585D02*
X018595Y018585D01*
X018486Y018824D02*
X005297Y018824D01*
X005228Y018893D02*
X005451Y018670D01*
X005522Y018499D01*
X009827Y018499D01*
X009957Y018446D01*
X010206Y018549D01*
X010510Y018549D01*
X010791Y018432D01*
X011006Y018217D01*
X011123Y017936D01*
X011123Y016982D01*
X011006Y016701D01*
X010791Y016486D01*
X010510Y016370D01*
X010206Y016370D01*
X009925Y016486D01*
X009709Y016701D01*
X009593Y016982D01*
X009593Y017323D01*
X009496Y017419D01*
X005572Y017419D01*
X005572Y017359D01*
X005451Y017067D01*
X005228Y016844D01*
X004937Y016724D01*
X004621Y016724D01*
X004330Y016844D01*
X004107Y017067D01*
X003987Y017359D01*
X003987Y018379D01*
X004107Y018670D01*
X004330Y018893D01*
X004621Y019014D01*
X004937Y019014D01*
X005228Y018893D01*
X005486Y018585D02*
X014022Y018585D01*
X013663Y018347D02*
X010877Y018347D01*
X011051Y018108D02*
X013515Y018108D01*
X013450Y017870D02*
X011123Y017870D01*
X011123Y017631D02*
X013450Y017631D01*
X013450Y017393D02*
X011123Y017393D01*
X011123Y017154D02*
X013450Y017154D01*
X013471Y016916D02*
X011095Y016916D01*
X010982Y016677D02*
X013570Y016677D01*
X013796Y016439D02*
X010677Y016439D01*
X010039Y016439D02*
X000660Y016439D01*
X000660Y016677D02*
X009733Y016677D01*
X009621Y016916D02*
X005299Y016916D01*
X005487Y017154D02*
X009593Y017154D01*
X009523Y017393D02*
X005572Y017393D01*
X004259Y016916D02*
X000660Y016916D01*
X000660Y017154D02*
X002366Y017154D01*
X002374Y017143D02*
X002438Y017080D01*
X002510Y017027D01*
X002591Y016986D01*
X002676Y016958D01*
X002765Y016944D01*
X002811Y016944D01*
X002856Y016944D01*
X002945Y016958D01*
X003030Y016986D01*
X003111Y017027D01*
X003184Y017080D01*
X003247Y017143D01*
X003300Y017216D01*
X003341Y017297D01*
X003369Y017382D01*
X003383Y017471D01*
X003383Y017869D01*
X003383Y018266D01*
X003369Y018355D01*
X003341Y018441D01*
X003300Y018521D01*
X003247Y018594D01*
X003184Y018658D01*
X003111Y018711D01*
X003030Y018752D01*
X002945Y018780D01*
X002856Y018794D01*
X002811Y018794D01*
X002811Y017869D01*
X003383Y017869D01*
X002811Y017869D01*
X002811Y017869D01*
X002811Y017869D01*
X002811Y018794D01*
X002765Y018794D01*
X002676Y018780D01*
X002591Y018752D01*
X002510Y018711D01*
X002438Y018658D01*
X002374Y018594D01*
X002321Y018521D01*
X002280Y018441D01*
X002252Y018355D01*
X002238Y018266D01*
X002238Y017869D01*
X002811Y017869D01*
X002811Y016944D01*
X002811Y017869D01*
X002811Y017869D01*
X002811Y017869D01*
X002238Y017869D01*
X002238Y017471D01*
X002252Y017382D01*
X002280Y017297D01*
X002321Y017216D01*
X002374Y017143D01*
X002250Y017393D02*
X000660Y017393D01*
X000660Y017631D02*
X002238Y017631D01*
X002238Y017870D02*
X000660Y017870D01*
X000660Y018108D02*
X002238Y018108D01*
X002251Y018347D02*
X001183Y018347D01*
X000831Y018347D02*
X000660Y018347D01*
X001530Y018585D02*
X002367Y018585D01*
X002811Y018585D02*
X002811Y018585D01*
X002811Y018347D02*
X002811Y018347D01*
X002811Y018108D02*
X002811Y018108D01*
X002811Y017870D02*
X002811Y017870D01*
X002811Y017631D02*
X002811Y017631D01*
X002811Y017393D02*
X002811Y017393D01*
X002811Y017154D02*
X002811Y017154D01*
X003255Y017154D02*
X004071Y017154D01*
X003987Y017393D02*
X003371Y017393D01*
X003383Y017631D02*
X003987Y017631D01*
X003987Y017870D02*
X003383Y017870D01*
X003383Y018108D02*
X003987Y018108D01*
X003987Y018347D02*
X003370Y018347D01*
X003254Y018585D02*
X004072Y018585D01*
X004261Y018824D02*
X001639Y018824D01*
X001644Y019062D02*
X018481Y019062D01*
X018568Y019301D02*
X001557Y019301D01*
X004643Y015947D02*
X004233Y015537D01*
X004233Y014957D01*
X004643Y014547D01*
X005223Y014547D01*
X005633Y014957D01*
X005633Y015537D01*
X005223Y015947D01*
X004643Y015947D01*
X004419Y015723D02*
X000660Y015723D01*
X000660Y015485D02*
X004233Y015485D01*
X004233Y015246D02*
X000660Y015246D01*
X000660Y015008D02*
X004233Y015008D01*
X004420Y014769D02*
X000660Y014769D01*
X000660Y014531D02*
X018278Y014531D01*
X017933Y014769D02*
X017933Y014769D01*
X017933Y015008D02*
X017933Y015008D01*
X018705Y015485D02*
X019180Y015485D01*
X019180Y015723D02*
X018934Y015723D01*
X019033Y015962D02*
X019180Y015962D01*
X019180Y016200D02*
X019053Y016200D01*
X019010Y016439D02*
X019180Y016439D01*
X018993Y015246D02*
X018747Y015246D01*
X018726Y015008D02*
X018755Y015008D01*
X019328Y014054D02*
X019544Y014054D01*
X019544Y013815D02*
X019090Y013815D01*
X018851Y013577D02*
X019544Y013577D01*
X019544Y013338D02*
X016972Y013338D01*
X017180Y013100D02*
X019544Y013100D01*
X019544Y012861D02*
X017180Y012861D01*
X017116Y012623D02*
X019544Y012623D01*
X019544Y012384D02*
X017237Y012384D01*
X017400Y012146D02*
X019544Y012146D01*
X019544Y011907D02*
X017400Y011907D01*
X017400Y011669D02*
X019544Y011669D01*
X019544Y011430D02*
X017235Y011430D01*
X016997Y011192D02*
X018286Y011192D01*
X018291Y011196D02*
X017834Y010739D01*
X017834Y010093D01*
X018291Y009636D01*
X018937Y009636D01*
X019394Y010093D01*
X019394Y010739D01*
X018937Y011196D01*
X018291Y011196D01*
X018048Y010953D02*
X016841Y010953D01*
X016998Y010715D02*
X017834Y010715D01*
X017834Y010476D02*
X017070Y010476D01*
X017070Y010238D02*
X017834Y010238D01*
X017927Y009999D02*
X016985Y009999D01*
X016810Y009761D02*
X018166Y009761D01*
X019062Y009761D02*
X019544Y009761D01*
X019544Y009522D02*
X012137Y009522D01*
X012659Y009284D02*
X019544Y009284D01*
X019544Y009045D02*
X013094Y009045D01*
X013433Y009999D02*
X013433Y009999D01*
X013433Y010238D02*
X013433Y010238D01*
X013433Y010459D02*
X013433Y010459D01*
X013830Y009999D02*
X015455Y009999D01*
X015370Y010238D02*
X014118Y010238D01*
X014173Y010476D02*
X015370Y010476D01*
X015442Y010715D02*
X014100Y010715D01*
X015410Y010953D02*
X015599Y010953D01*
X015143Y012146D02*
X014320Y012146D01*
X014393Y012384D02*
X016054Y012384D01*
X016174Y012623D02*
X014397Y012623D01*
X014636Y012861D02*
X016110Y012861D01*
X016110Y013100D02*
X014874Y013100D01*
X015113Y013338D02*
X016319Y013338D01*
X018941Y011192D02*
X019544Y011192D01*
X019544Y010953D02*
X019179Y010953D01*
X019394Y010715D02*
X019544Y010715D01*
X019544Y010476D02*
X019394Y010476D01*
X019394Y010238D02*
X019544Y010238D01*
X019544Y009999D02*
X019300Y009999D01*
X019121Y006899D02*
X019544Y006899D01*
X019544Y006660D02*
X019314Y006660D01*
X019314Y006422D02*
X019544Y006422D01*
X019544Y006183D02*
X019314Y006183D01*
X019132Y005945D02*
X019544Y005945D01*
X018926Y004990D02*
X018301Y004990D01*
X017859Y004548D01*
X017859Y003922D01*
X018202Y003579D01*
X018079Y003457D01*
X018079Y003235D01*
X018614Y003235D01*
X019149Y003235D01*
X019149Y003457D01*
X019026Y003579D01*
X019369Y003922D01*
X019369Y004548D01*
X018926Y004990D01*
X019164Y004752D02*
X019544Y004752D01*
X019544Y004514D02*
X019369Y004514D01*
X019369Y004275D02*
X019544Y004275D01*
X019544Y004037D02*
X019369Y004037D01*
X019245Y003798D02*
X019544Y003798D01*
X019544Y003560D02*
X019045Y003560D01*
X019149Y003321D02*
X019544Y003321D01*
X019544Y003083D02*
X019149Y003083D01*
X019149Y003013D02*
X019149Y003235D01*
X018614Y003235D01*
X018614Y003235D01*
X018614Y002700D01*
X018835Y002700D01*
X019149Y003013D01*
X018980Y002844D02*
X019544Y002844D01*
X019544Y002606D02*
X016587Y002606D01*
X016739Y002367D02*
X019544Y002367D01*
X019544Y002129D02*
X016760Y002129D01*
X016760Y001890D02*
X019544Y001890D01*
X018622Y001652D02*
X016760Y001652D01*
X016682Y001413D02*
X018497Y001413D01*
X018481Y001175D02*
X016449Y001175D01*
X016211Y000936D02*
X018557Y000936D01*
X018614Y002700D02*
X018392Y002700D01*
X018079Y003013D01*
X018079Y003235D01*
X018614Y003235D01*
X018614Y003235D01*
X018614Y003235D01*
X018614Y002700D01*
X018614Y002844D02*
X018614Y002844D01*
X018614Y003083D02*
X018614Y003083D01*
X018248Y002844D02*
X016362Y002844D01*
X015814Y003083D02*
X018079Y003083D01*
X018079Y003321D02*
X015635Y003321D01*
X014592Y003321D02*
X012942Y003321D01*
X013181Y003560D02*
X018182Y003560D01*
X017983Y003798D02*
X013251Y003798D01*
X013260Y004037D02*
X017859Y004037D01*
X017859Y004275D02*
X013185Y004275D01*
X012947Y004514D02*
X017859Y004514D01*
X018063Y004752D02*
X000660Y004752D01*
X000660Y004991D02*
X005447Y004991D01*
X005458Y004979D02*
X005657Y004979D01*
X005657Y005459D01*
X005657Y004979D01*
X005856Y004979D01*
X006137Y005261D01*
X006137Y005459D01*
X005657Y005459D01*
X005657Y005459D01*
X005657Y005459D01*
X005177Y005459D01*
X005177Y005261D01*
X005458Y004979D01*
X005657Y004991D02*
X005657Y004991D01*
X005867Y004991D02*
X009136Y004991D01*
X008957Y005229D02*
X006106Y005229D01*
X006137Y005459D02*
X006137Y005658D01*
X005856Y005939D01*
X005657Y005939D01*
X005458Y005939D01*
X005177Y005658D01*
X005177Y005459D01*
X005657Y005459D01*
X005657Y005459D01*
X006137Y005459D01*
X006137Y005468D02*
X008957Y005468D01*
X008957Y005706D02*
X006089Y005706D01*
X005657Y005706D02*
X005657Y005706D01*
X005657Y005939D02*
X005657Y005459D01*
X005657Y005459D01*
X005657Y005939D01*
X005657Y005468D02*
X005657Y005468D01*
X005657Y005229D02*
X005657Y005229D01*
X005208Y005229D02*
X000660Y005229D01*
X000660Y005468D02*
X005177Y005468D01*
X005225Y005706D02*
X000660Y005706D01*
X000660Y005945D02*
X009153Y005945D01*
X010161Y005945D02*
X015041Y005945D01*
X014977Y006183D02*
X000660Y006183D01*
X000660Y006422D02*
X014744Y006422D01*
X014506Y006660D02*
X000660Y006660D01*
X000660Y006899D02*
X011903Y006899D01*
X011665Y007137D02*
X000660Y007137D01*
X000660Y007376D02*
X006422Y007376D01*
X006183Y007614D02*
X000660Y007614D01*
X000660Y007853D02*
X005945Y007853D01*
X005844Y008091D02*
X001531Y008091D01*
X001684Y008330D02*
X005844Y008330D01*
X005844Y008568D02*
X001684Y008568D01*
X001552Y008807D02*
X005844Y008807D01*
X005924Y009045D02*
X000660Y009045D01*
X000660Y008807D02*
X000776Y008807D01*
X001164Y008807D02*
X001164Y008807D01*
X001164Y008568D02*
X001164Y008568D01*
X001164Y008330D02*
X001164Y008330D01*
X001164Y008091D02*
X001164Y008091D01*
X000796Y008091D02*
X000660Y008091D01*
X000660Y009284D02*
X006163Y009284D01*
X006401Y009522D02*
X000660Y009522D01*
X000660Y009761D02*
X010030Y009761D01*
X011426Y007376D02*
X007706Y007376D01*
X006169Y009999D02*
X000660Y009999D01*
X000660Y010238D02*
X005928Y010238D01*
X005689Y010476D02*
X000660Y010476D01*
X000660Y010715D02*
X005451Y010715D01*
X005212Y010953D02*
X000660Y010953D01*
X000660Y011192D02*
X004564Y011192D01*
X004326Y011430D02*
X003842Y011430D01*
X004259Y011669D02*
X004296Y011669D01*
X003385Y011430D02*
X000660Y011430D01*
X000660Y011669D02*
X001280Y011669D01*
X001315Y011633D02*
X001614Y011633D01*
X001912Y011633D01*
X002334Y012055D01*
X002334Y012353D01*
X002334Y012651D01*
X001912Y013073D01*
X001614Y013073D01*
X001614Y012353D01*
X001614Y012353D01*
X002334Y012353D01*
X001614Y012353D01*
X001614Y011633D01*
X001614Y012353D01*
X001614Y012353D01*
X001614Y012353D01*
X001614Y013073D01*
X001315Y013073D01*
X000894Y012651D01*
X000894Y012353D01*
X000894Y012055D01*
X001315Y011633D01*
X001041Y011907D02*
X000660Y011907D01*
X000660Y012146D02*
X000894Y012146D01*
X000894Y012353D02*
X001614Y012353D01*
X001614Y012353D01*
X000894Y012353D01*
X000894Y012384D02*
X000660Y012384D01*
X000660Y012623D02*
X000894Y012623D01*
X001104Y012861D02*
X000660Y012861D01*
X000660Y013100D02*
X003031Y013100D01*
X002807Y012861D02*
X002124Y012861D01*
X002334Y012623D02*
X002708Y012623D01*
X002674Y012384D02*
X002334Y012384D01*
X002334Y012146D02*
X002682Y012146D01*
X002781Y011907D02*
X002186Y011907D01*
X001948Y011669D02*
X002969Y011669D01*
X001614Y011669D02*
X001614Y011669D01*
X001614Y011907D02*
X001614Y011907D01*
X001614Y012146D02*
X001614Y012146D01*
X001614Y012384D02*
X001614Y012384D01*
X001614Y012623D02*
X001614Y012623D01*
X001614Y012861D02*
X001614Y012861D01*
X000660Y013338D02*
X004233Y013338D01*
X004233Y013577D02*
X000660Y013577D01*
X000660Y013815D02*
X004233Y013815D01*
X004368Y014054D02*
X000660Y014054D01*
X000660Y014292D02*
X004606Y014292D01*
X005259Y014292D02*
X008606Y014292D01*
X008368Y014054D02*
X005497Y014054D01*
X005633Y013815D02*
X008233Y013815D01*
X008233Y013577D02*
X005633Y013577D01*
X005855Y013338D02*
X008233Y013338D01*
X008471Y013100D02*
X006093Y013100D01*
X006332Y012861D02*
X008804Y012861D01*
X009043Y012623D02*
X006570Y012623D01*
X004471Y013100D02*
X004196Y013100D01*
X005445Y014769D02*
X008420Y014769D01*
X008233Y015008D02*
X005633Y015008D01*
X005633Y015246D02*
X008233Y015246D01*
X008233Y015485D02*
X005633Y015485D01*
X005446Y015723D02*
X008419Y015723D01*
X009497Y014054D02*
X009779Y014054D01*
X010357Y005706D02*
X015161Y005706D01*
X015357Y005468D02*
X010357Y005468D01*
X010357Y005229D02*
X015700Y005229D01*
X014414Y003083D02*
X011415Y003083D01*
X011217Y003321D02*
X012159Y003321D01*
X011921Y003560D02*
X010584Y003560D01*
X010436Y003321D02*
X010346Y003321D01*
X011599Y002844D02*
X014414Y002844D01*
X014414Y002606D02*
X011837Y002606D01*
X012076Y002367D02*
X014609Y002367D01*
X014711Y002129D02*
X012314Y002129D01*
X012553Y001890D02*
X014634Y001890D01*
X014634Y001853D02*
X015114Y001853D01*
X015114Y001373D01*
X015114Y001853D01*
X015114Y001853D01*
X014634Y001853D01*
X014636Y001652D02*
X012791Y001652D01*
X013030Y001413D02*
X014875Y001413D01*
X015114Y001413D02*
X015114Y001413D01*
X015114Y001652D02*
X015114Y001652D01*
X015114Y001853D02*
X015114Y001853D01*
X019294Y018347D02*
X019544Y018347D01*
D24*
X016362Y018570D03*
X018330Y012270D03*
X014787Y004790D03*
X012818Y002428D03*
X008881Y016601D03*
D25*
X007064Y008459D02*
X011970Y008459D01*
X012470Y007959D01*
X012551Y007920D01*
X012720Y007959D01*
X014720Y007959D01*
X016220Y006459D01*
X016220Y006373D01*
M02*
