%
M48
M72
T01C0.0236
T02C0.0240
T03C0.0320
T04C0.0394
T05C0.0400
T06C0.0433
T07C0.0440
T08C0.0470
%
T01
X12818Y2428
X14787Y4790
X18330Y12270
X16362Y18570
X8881Y16601
T02
X9826Y3778
X10826Y2778
X9826Y1778
T03
X12551Y3920
X15114Y2853
X15864Y2353
X15114Y1853
X18614Y3235
X18614Y4235
X18614Y6416
X18614Y10416
X16645Y11908
X16645Y12908
X13433Y12459
X13433Y11459
X13433Y10459
X12551Y7920
X10433Y10459
X10433Y11459
X10433Y12459
X10433Y13459
X8933Y13629
X8933Y15247
X8996Y11751
X4996Y11751
X4933Y13629
X4933Y15247
X13433Y13459
X9657Y5459
X5657Y5459
T04
X1007Y1247
X1007Y18963
X19118Y18963
X19118Y1247
T05
X7064Y8459
X3614Y12353
X1614Y12353
X1164Y8459
X17933Y15172
X17933Y16172
X17933Y17172
T06
X14295Y17459
X10358Y17459
T07
X16220Y10373
X16220Y6373
T08
X4779Y17869
X2811Y17869
X2425Y2558
X4393Y2558
M30
