G75*
G70*
%OFA0B0*%
%FSLAX24Y24*%
%IPPOS*%
%LPD*%
%AMOC8*
5,1,8,0,0,1.08239X$1,22.5*
%
%ADD10C,0.0000*%
%ADD11C,0.0040*%
%ADD12C,0.0060*%
D10*
X000220Y000459D02*
X000220Y019955D01*
X019984Y019955D01*
X019984Y000459D01*
X000220Y000459D01*
X000810Y001247D02*
X000812Y001274D01*
X000818Y001301D01*
X000827Y001327D01*
X000840Y001351D01*
X000856Y001374D01*
X000875Y001393D01*
X000897Y001410D01*
X000921Y001424D01*
X000946Y001434D01*
X000973Y001441D01*
X001000Y001444D01*
X001028Y001443D01*
X001055Y001438D01*
X001081Y001430D01*
X001105Y001418D01*
X001128Y001402D01*
X001149Y001384D01*
X001166Y001363D01*
X001181Y001339D01*
X001192Y001314D01*
X001200Y001288D01*
X001204Y001261D01*
X001204Y001233D01*
X001200Y001206D01*
X001192Y001180D01*
X001181Y001155D01*
X001166Y001131D01*
X001149Y001110D01*
X001128Y001092D01*
X001106Y001076D01*
X001081Y001064D01*
X001055Y001056D01*
X001028Y001051D01*
X001000Y001050D01*
X000973Y001053D01*
X000946Y001060D01*
X000921Y001070D01*
X000897Y001084D01*
X000875Y001101D01*
X000856Y001120D01*
X000840Y001143D01*
X000827Y001167D01*
X000818Y001193D01*
X000812Y001220D01*
X000810Y001247D01*
X000810Y018963D02*
X000812Y018990D01*
X000818Y019017D01*
X000827Y019043D01*
X000840Y019067D01*
X000856Y019090D01*
X000875Y019109D01*
X000897Y019126D01*
X000921Y019140D01*
X000946Y019150D01*
X000973Y019157D01*
X001000Y019160D01*
X001028Y019159D01*
X001055Y019154D01*
X001081Y019146D01*
X001105Y019134D01*
X001128Y019118D01*
X001149Y019100D01*
X001166Y019079D01*
X001181Y019055D01*
X001192Y019030D01*
X001200Y019004D01*
X001204Y018977D01*
X001204Y018949D01*
X001200Y018922D01*
X001192Y018896D01*
X001181Y018871D01*
X001166Y018847D01*
X001149Y018826D01*
X001128Y018808D01*
X001106Y018792D01*
X001081Y018780D01*
X001055Y018772D01*
X001028Y018767D01*
X001000Y018766D01*
X000973Y018769D01*
X000946Y018776D01*
X000921Y018786D01*
X000897Y018800D01*
X000875Y018817D01*
X000856Y018836D01*
X000840Y018859D01*
X000827Y018883D01*
X000818Y018909D01*
X000812Y018936D01*
X000810Y018963D01*
X018921Y018963D02*
X018923Y018990D01*
X018929Y019017D01*
X018938Y019043D01*
X018951Y019067D01*
X018967Y019090D01*
X018986Y019109D01*
X019008Y019126D01*
X019032Y019140D01*
X019057Y019150D01*
X019084Y019157D01*
X019111Y019160D01*
X019139Y019159D01*
X019166Y019154D01*
X019192Y019146D01*
X019216Y019134D01*
X019239Y019118D01*
X019260Y019100D01*
X019277Y019079D01*
X019292Y019055D01*
X019303Y019030D01*
X019311Y019004D01*
X019315Y018977D01*
X019315Y018949D01*
X019311Y018922D01*
X019303Y018896D01*
X019292Y018871D01*
X019277Y018847D01*
X019260Y018826D01*
X019239Y018808D01*
X019217Y018792D01*
X019192Y018780D01*
X019166Y018772D01*
X019139Y018767D01*
X019111Y018766D01*
X019084Y018769D01*
X019057Y018776D01*
X019032Y018786D01*
X019008Y018800D01*
X018986Y018817D01*
X018967Y018836D01*
X018951Y018859D01*
X018938Y018883D01*
X018929Y018909D01*
X018923Y018936D01*
X018921Y018963D01*
X018921Y001247D02*
X018923Y001274D01*
X018929Y001301D01*
X018938Y001327D01*
X018951Y001351D01*
X018967Y001374D01*
X018986Y001393D01*
X019008Y001410D01*
X019032Y001424D01*
X019057Y001434D01*
X019084Y001441D01*
X019111Y001444D01*
X019139Y001443D01*
X019166Y001438D01*
X019192Y001430D01*
X019216Y001418D01*
X019239Y001402D01*
X019260Y001384D01*
X019277Y001363D01*
X019292Y001339D01*
X019303Y001314D01*
X019311Y001288D01*
X019315Y001261D01*
X019315Y001233D01*
X019311Y001206D01*
X019303Y001180D01*
X019292Y001155D01*
X019277Y001131D01*
X019260Y001110D01*
X019239Y001092D01*
X019217Y001076D01*
X019192Y001064D01*
X019166Y001056D01*
X019139Y001051D01*
X019111Y001050D01*
X019084Y001053D01*
X019057Y001060D01*
X019032Y001070D01*
X019008Y001084D01*
X018986Y001101D01*
X018967Y001120D01*
X018951Y001143D01*
X018938Y001167D01*
X018929Y001193D01*
X018923Y001220D01*
X018921Y001247D01*
D11*
X009649Y006385D02*
X009419Y006385D01*
X009342Y006462D01*
X009419Y006538D01*
X009572Y006538D01*
X009649Y006615D01*
X009572Y006692D01*
X009342Y006692D01*
X009188Y006615D02*
X009112Y006692D01*
X008958Y006692D01*
X008881Y006615D01*
X008881Y006385D01*
X008728Y006462D02*
X008651Y006538D01*
X008421Y006538D01*
X008421Y006615D02*
X008421Y006385D01*
X008651Y006385D01*
X008728Y006462D01*
X008651Y006692D02*
X008498Y006692D01*
X008421Y006615D01*
X008268Y006692D02*
X008037Y006692D01*
X007961Y006615D01*
X007961Y006385D01*
X007807Y006385D02*
X007807Y006692D01*
X007731Y006692D01*
X007654Y006615D01*
X007577Y006692D01*
X007500Y006615D01*
X007500Y006385D01*
X007654Y006385D02*
X007654Y006615D01*
X007347Y006692D02*
X007347Y006462D01*
X007270Y006385D01*
X007040Y006385D01*
X007040Y006692D01*
X006886Y006615D02*
X006886Y006462D01*
X006810Y006385D01*
X006580Y006385D01*
X006580Y006308D02*
X006580Y006692D01*
X006810Y006692D01*
X006886Y006615D01*
X006733Y006231D02*
X006656Y006231D01*
X006580Y006308D01*
X006426Y006462D02*
X006349Y006538D01*
X006119Y006538D01*
X006119Y006615D02*
X006119Y006385D01*
X006349Y006385D01*
X006426Y006462D01*
X006349Y006692D02*
X006196Y006692D01*
X006119Y006615D01*
X005966Y006692D02*
X005966Y006385D01*
X005812Y006385D02*
X005812Y006615D01*
X005735Y006692D01*
X005659Y006615D01*
X005659Y006385D01*
X005505Y006385D02*
X005505Y006692D01*
X005429Y006692D01*
X005352Y006615D01*
X005275Y006692D01*
X005198Y006615D01*
X005198Y006385D01*
X005045Y006385D02*
X004815Y006385D01*
X004738Y006462D01*
X004738Y006615D01*
X004815Y006692D01*
X005045Y006692D01*
X005045Y006231D01*
X005352Y006385D02*
X005352Y006615D01*
X005812Y006615D02*
X005889Y006692D01*
X005966Y006692D01*
X004585Y006845D02*
X004508Y006845D01*
X004508Y006385D01*
X004585Y006385D02*
X004431Y006385D01*
X004278Y006462D02*
X004278Y006768D01*
X004201Y006845D01*
X004047Y006845D01*
X003971Y006768D01*
X003971Y006615D01*
X004047Y006538D01*
X004047Y006692D01*
X004201Y006692D01*
X004201Y006538D01*
X004047Y006538D01*
X003971Y006462D02*
X004047Y006385D01*
X004201Y006385D01*
X004278Y006462D01*
X003817Y006462D02*
X003740Y006385D01*
X003510Y006385D01*
X003510Y006308D02*
X003510Y006692D01*
X003740Y006692D01*
X003817Y006615D01*
X003817Y006462D01*
X003664Y006231D02*
X003587Y006231D01*
X003510Y006308D01*
X003357Y006385D02*
X003357Y006692D01*
X003280Y006692D01*
X003203Y006615D01*
X003127Y006692D01*
X003050Y006615D01*
X003050Y006385D01*
X003203Y006385D02*
X003203Y006615D01*
X002896Y006462D02*
X002820Y006538D01*
X002589Y006538D01*
X002589Y006615D02*
X002589Y006385D01*
X002820Y006385D01*
X002896Y006462D01*
X002820Y006692D02*
X002666Y006692D01*
X002589Y006615D01*
X002436Y006692D02*
X002359Y006692D01*
X002359Y006385D01*
X002283Y006385D02*
X002436Y006385D01*
X002129Y006385D02*
X001976Y006385D01*
X002052Y006385D02*
X002052Y006845D01*
X002129Y006845D01*
X002359Y006845D02*
X002359Y006922D01*
X001822Y006462D02*
X001745Y006462D01*
X001745Y006385D01*
X001822Y006385D01*
X001822Y006462D01*
X001592Y006462D02*
X001515Y006385D01*
X001285Y006385D01*
X001132Y006462D02*
X001132Y006615D01*
X001055Y006692D01*
X000901Y006692D01*
X000825Y006615D01*
X000825Y006462D01*
X000901Y006385D01*
X001055Y006385D01*
X001132Y006462D01*
X001285Y006692D02*
X001515Y006692D01*
X001592Y006615D01*
X001592Y006462D01*
X000671Y006385D02*
X000671Y006692D01*
X000594Y006692D01*
X000518Y006615D01*
X000441Y006692D01*
X000364Y006615D01*
X000364Y006385D01*
X000518Y006385D02*
X000518Y006615D01*
X008268Y006692D02*
X008268Y006385D01*
X009188Y006385D02*
X009188Y006845D01*
X009406Y015046D02*
X009329Y015123D01*
X009329Y015507D01*
X009636Y015507D02*
X009636Y015123D01*
X009559Y015046D01*
X009406Y015046D01*
X009789Y015123D02*
X009866Y015046D01*
X010020Y015046D01*
X010096Y015123D01*
X010020Y015276D02*
X009866Y015276D01*
X009789Y015200D01*
X009789Y015123D01*
X010020Y015276D02*
X010096Y015353D01*
X010096Y015430D01*
X010020Y015507D01*
X009866Y015507D01*
X009789Y015430D01*
X010250Y015430D02*
X010250Y015276D01*
X010327Y015200D01*
X010557Y015200D01*
X010557Y015046D02*
X010557Y015507D01*
X010327Y015507D01*
X010250Y015430D01*
X011171Y015276D02*
X011171Y015200D01*
X011477Y015200D01*
X011477Y015276D02*
X011477Y015123D01*
X011401Y015046D01*
X011247Y015046D01*
X011171Y015276D02*
X011247Y015353D01*
X011401Y015353D01*
X011477Y015276D01*
X011631Y015276D02*
X011708Y015353D01*
X011938Y015353D01*
X012091Y015353D02*
X012091Y015046D01*
X012322Y015046D01*
X012398Y015123D01*
X012398Y015353D01*
X012552Y015353D02*
X012705Y015353D01*
X012628Y015430D02*
X012628Y015123D01*
X012552Y015046D01*
X011938Y015046D02*
X011938Y015507D01*
X011631Y015276D02*
X011631Y015123D01*
X011708Y015046D01*
X011938Y015046D01*
X013319Y015200D02*
X013626Y015200D01*
X013626Y015276D02*
X013626Y015123D01*
X013549Y015046D01*
X013396Y015046D01*
X013319Y015200D02*
X013319Y015276D01*
X013396Y015353D01*
X013549Y015353D01*
X013626Y015276D01*
X013856Y015353D02*
X013856Y015046D01*
X013933Y015046D02*
X013779Y015046D01*
X014086Y015046D02*
X014393Y015353D01*
X014624Y015353D02*
X014624Y015046D01*
X014700Y015046D02*
X014547Y015046D01*
X014393Y015046D02*
X014086Y015353D01*
X013933Y015353D02*
X013856Y015353D01*
X013856Y015507D02*
X013856Y015583D01*
X014624Y015583D02*
X014624Y015507D01*
X014624Y015353D02*
X014700Y015353D01*
X014854Y015507D02*
X014854Y015046D01*
X015161Y015507D01*
X015161Y015046D01*
D12*
X008064Y016631D02*
X007851Y016631D01*
X007957Y016631D02*
X007957Y017272D01*
X007851Y017272D02*
X008064Y017272D01*
X007634Y017058D02*
X007634Y016631D01*
X007207Y016631D02*
X007207Y016951D01*
X007314Y017058D01*
X007634Y017058D01*
X006990Y017058D02*
X006990Y016418D01*
X006990Y016631D02*
X006669Y016631D01*
X006563Y016738D01*
X006563Y016951D01*
X006669Y017058D01*
X006990Y017058D01*
X006345Y017058D02*
X006345Y016738D01*
X006238Y016631D01*
X005918Y016631D01*
X005918Y017058D01*
X005701Y017058D02*
X005487Y017058D01*
X005594Y017165D02*
X005594Y016738D01*
X005487Y016631D01*
X005880Y002705D02*
X006307Y002705D01*
X006307Y002064D01*
X005880Y002064D01*
X006093Y002384D02*
X006307Y002384D01*
X006524Y002384D02*
X006524Y002171D01*
X006631Y002064D01*
X006845Y002064D01*
X006951Y002171D01*
X006951Y002598D01*
X006845Y002705D01*
X006631Y002705D01*
X006524Y002598D01*
X006524Y002384D02*
X006738Y002384D01*
X007169Y002384D02*
X007596Y002384D01*
X007596Y002491D02*
X007596Y002064D01*
X007169Y002064D02*
X007169Y002491D01*
X007383Y002705D01*
X007596Y002491D01*
X007814Y002705D02*
X008241Y002705D01*
X008027Y002705D02*
X008027Y002064D01*
X008458Y002064D02*
X008885Y002064D01*
X008885Y002705D01*
X009103Y002598D02*
X009209Y002705D01*
X009423Y002705D01*
X009530Y002598D01*
X009530Y002171D01*
X009423Y002064D01*
X009209Y002064D01*
X009103Y002171D01*
X009103Y002598D01*
X009747Y002705D02*
X009747Y002278D01*
X009961Y002064D01*
X010174Y002278D01*
X010174Y002705D01*
X011036Y002705D02*
X011036Y002064D01*
X011036Y002384D02*
X011463Y002384D01*
X011463Y002064D02*
X011463Y002705D01*
X011681Y002598D02*
X011788Y002705D01*
X012001Y002705D01*
X012108Y002598D01*
X012108Y002171D01*
X012001Y002064D01*
X011788Y002064D01*
X011681Y002171D01*
X011681Y002384D01*
X011894Y002384D01*
X012324Y002064D02*
X012538Y002064D01*
X012431Y002064D02*
X012431Y002705D01*
X012538Y002705D02*
X012324Y002705D01*
X012755Y002705D02*
X012755Y002064D01*
X012755Y002384D02*
X013182Y002384D01*
X013182Y002064D02*
X013182Y002705D01*
M02*
