G75*
G70*
%OFA0B0*%
%FSLAX24Y24*%
%IPPOS*%
%LPD*%
%AMOC8*
5,1,8,0,0,1.08239X$1,22.5*
%
%ADD10C,0.0000*%
D10*
X000220Y000459D02*
X000220Y019955D01*
X019984Y019955D01*
X019984Y000459D01*
X000220Y000459D01*
X000810Y001247D02*
X000812Y001274D01*
X000818Y001301D01*
X000827Y001327D01*
X000840Y001351D01*
X000856Y001374D01*
X000875Y001393D01*
X000897Y001410D01*
X000921Y001424D01*
X000946Y001434D01*
X000973Y001441D01*
X001000Y001444D01*
X001028Y001443D01*
X001055Y001438D01*
X001081Y001430D01*
X001105Y001418D01*
X001128Y001402D01*
X001149Y001384D01*
X001166Y001363D01*
X001181Y001339D01*
X001192Y001314D01*
X001200Y001288D01*
X001204Y001261D01*
X001204Y001233D01*
X001200Y001206D01*
X001192Y001180D01*
X001181Y001155D01*
X001166Y001131D01*
X001149Y001110D01*
X001128Y001092D01*
X001106Y001076D01*
X001081Y001064D01*
X001055Y001056D01*
X001028Y001051D01*
X001000Y001050D01*
X000973Y001053D01*
X000946Y001060D01*
X000921Y001070D01*
X000897Y001084D01*
X000875Y001101D01*
X000856Y001120D01*
X000840Y001143D01*
X000827Y001167D01*
X000818Y001193D01*
X000812Y001220D01*
X000810Y001247D01*
X000810Y018963D02*
X000812Y018990D01*
X000818Y019017D01*
X000827Y019043D01*
X000840Y019067D01*
X000856Y019090D01*
X000875Y019109D01*
X000897Y019126D01*
X000921Y019140D01*
X000946Y019150D01*
X000973Y019157D01*
X001000Y019160D01*
X001028Y019159D01*
X001055Y019154D01*
X001081Y019146D01*
X001105Y019134D01*
X001128Y019118D01*
X001149Y019100D01*
X001166Y019079D01*
X001181Y019055D01*
X001192Y019030D01*
X001200Y019004D01*
X001204Y018977D01*
X001204Y018949D01*
X001200Y018922D01*
X001192Y018896D01*
X001181Y018871D01*
X001166Y018847D01*
X001149Y018826D01*
X001128Y018808D01*
X001106Y018792D01*
X001081Y018780D01*
X001055Y018772D01*
X001028Y018767D01*
X001000Y018766D01*
X000973Y018769D01*
X000946Y018776D01*
X000921Y018786D01*
X000897Y018800D01*
X000875Y018817D01*
X000856Y018836D01*
X000840Y018859D01*
X000827Y018883D01*
X000818Y018909D01*
X000812Y018936D01*
X000810Y018963D01*
X018921Y018963D02*
X018923Y018990D01*
X018929Y019017D01*
X018938Y019043D01*
X018951Y019067D01*
X018967Y019090D01*
X018986Y019109D01*
X019008Y019126D01*
X019032Y019140D01*
X019057Y019150D01*
X019084Y019157D01*
X019111Y019160D01*
X019139Y019159D01*
X019166Y019154D01*
X019192Y019146D01*
X019216Y019134D01*
X019239Y019118D01*
X019260Y019100D01*
X019277Y019079D01*
X019292Y019055D01*
X019303Y019030D01*
X019311Y019004D01*
X019315Y018977D01*
X019315Y018949D01*
X019311Y018922D01*
X019303Y018896D01*
X019292Y018871D01*
X019277Y018847D01*
X019260Y018826D01*
X019239Y018808D01*
X019217Y018792D01*
X019192Y018780D01*
X019166Y018772D01*
X019139Y018767D01*
X019111Y018766D01*
X019084Y018769D01*
X019057Y018776D01*
X019032Y018786D01*
X019008Y018800D01*
X018986Y018817D01*
X018967Y018836D01*
X018951Y018859D01*
X018938Y018883D01*
X018929Y018909D01*
X018923Y018936D01*
X018921Y018963D01*
X018921Y001247D02*
X018923Y001274D01*
X018929Y001301D01*
X018938Y001327D01*
X018951Y001351D01*
X018967Y001374D01*
X018986Y001393D01*
X019008Y001410D01*
X019032Y001424D01*
X019057Y001434D01*
X019084Y001441D01*
X019111Y001444D01*
X019139Y001443D01*
X019166Y001438D01*
X019192Y001430D01*
X019216Y001418D01*
X019239Y001402D01*
X019260Y001384D01*
X019277Y001363D01*
X019292Y001339D01*
X019303Y001314D01*
X019311Y001288D01*
X019315Y001261D01*
X019315Y001233D01*
X019311Y001206D01*
X019303Y001180D01*
X019292Y001155D01*
X019277Y001131D01*
X019260Y001110D01*
X019239Y001092D01*
X019217Y001076D01*
X019192Y001064D01*
X019166Y001056D01*
X019139Y001051D01*
X019111Y001050D01*
X019084Y001053D01*
X019057Y001060D01*
X019032Y001070D01*
X019008Y001084D01*
X018986Y001101D01*
X018967Y001120D01*
X018951Y001143D01*
X018938Y001167D01*
X018929Y001193D01*
X018923Y001220D01*
X018921Y001247D01*
M02*
